<svg width="59" height="59" viewBox="0 0 59 59" fill="none" xmlns="http://www.w3.org/2000/svg">
<rect y="59" width="59" height="59" rx="15.7333" transform="rotate(-90 0 59)" fill="#F4F7FE"/>
<path d="M48.6682 26.7007C48.9783 24.5468 47.8695 22.3589 45.8006 21.3903C43.7316 20.4259 41.3441 20.9824 39.8954 22.6053C37.0405 23.0174 34.4447 24.8229 33.1362 27.6353C31.0715 32.0706 32.9833 37.3428 37.4143 39.4118C41.8411 41.4807 47.1048 39.5605 49.1695 35.1209C50.4738 32.3 50.1849 29.152 48.6682 26.7007Z" fill="#231F1F"/>
<path d="M43.6675 19.5154C44.0456 19.6895 44.5002 19.5111 44.6914 19.1118C44.8783 18.7124 44.7254 18.2451 44.343 18.0667C43.9649 17.8925 43.5103 18.0709 43.3192 18.4703C43.1365 18.8696 43.2894 19.3369 43.6675 19.5154Z" fill="#231F1F"/>
<path d="M48.5398 21.7868C48.9179 21.961 49.3725 21.7826 49.5637 21.3832C49.7506 20.9839 49.5977 20.5166 49.2153 20.3382C48.8372 20.164 48.3826 20.3424 48.1915 20.7417C48.0088 21.1453 48.166 21.6127 48.5398 21.7868Z" fill="#231F1F"/>
<path d="M15.8764 36.8014C14.4787 36.8014 14.0497 36.3341 14.0497 34.9364V31.7246C14.0497 30.4926 13.6333 29.9403 12.5712 29.9403C11.6536 29.9403 11.1565 30.5563 11.1565 31.6736V36.8057H10.0944C8.74771 36.8057 8 36.2746 8 34.9406V31.7289C8 29.0949 9.74607 27.3828 12.6562 27.3828C15.8977 27.3828 17.2104 29.0991 17.2104 31.8096V36.8057L15.8764 36.8014Z" fill="#5D3EBC"/>
<path d="M22.052 36.7933C21.1046 36.7933 20.3696 36.1433 20.3696 35.0429V28.4495L19.3245 28.7809C19.0909 28.8446 18.8572 28.8786 18.6405 28.8786C17.9735 28.8786 17.4595 28.5642 17.3618 28.0119L17.1621 26.9116L20.1699 25.6456C20.667 25.4289 21.3043 25.293 22.0137 25.293C22.7614 25.293 23.5261 25.824 23.5261 26.7247V36.7805H22.052V36.7933Z" fill="#5D3EBC"/>
<path d="M29.2961 36.7933C28.3487 36.7933 27.6138 36.1433 27.6138 35.0429V28.4495L26.5687 28.7809C26.335 28.8446 26.1013 28.8786 25.8847 28.8786C25.2177 28.8786 24.7036 28.5642 24.6059 28.0119L24.4062 26.9116L27.4141 25.6456C27.9111 25.4289 28.5484 25.293 29.2579 25.293C30.0056 25.293 30.7703 25.824 30.7703 26.7247V36.7805H29.2961V36.7933Z" fill="#5D3EBC"/>
<path d="M48.6682 26.6929C48.9783 24.539 47.8695 22.3511 45.8006 21.3824C43.7316 20.4181 41.3441 20.9746 39.8954 22.5975C37.0405 23.0096 34.4447 24.8109 33.1362 27.6275C31.0715 32.0628 32.9833 37.335 37.4143 39.404C41.8454 41.4729 47.1048 39.5526 49.1695 35.1131C50.4738 32.2965 50.1849 29.1484 48.6682 26.6929Z" fill="white"/>
<path d="M48.2442 28.1111C47.0632 30.6474 44.0596 31.7435 41.5318 30.5582C38.9998 29.3771 37.9079 26.3651 39.0847 23.833C40.2658 21.2968 43.2694 20.2007 45.8014 21.386C48.3292 22.567 49.4252 25.5749 48.2442 28.1111Z" fill="#231F1F"/>
<path d="M49.1688 35.1103C47.1041 39.5455 41.8404 41.4658 37.4136 39.4011C32.9869 37.3321 31.0709 32.0642 33.1355 27.6247C35.2002 23.1894 40.464 21.2691 44.8907 23.3338C49.3218 25.4028 51.2335 30.675 49.1688 35.1103Z" fill="#5D3EBC"/>
<path d="M46.086 26.0537C45.5635 27.1753 44.2337 27.6596 43.1122 27.137C41.9906 26.6145 41.5105 25.2805 42.0288 24.1589C42.5514 23.0374 43.8811 22.5531 45.0027 23.0756C46.12 23.6024 46.6043 24.9364 46.086 26.0537Z" fill="#FFD10D"/>
<path d="M39.4072 31.2618C39.0163 32.1072 38.0095 32.4725 37.1683 32.0775C36.3229 31.6866 35.9575 30.6797 36.3526 29.8343C36.7435 28.9889 37.7503 28.6235 38.5915 29.0186C39.4327 29.4137 39.798 30.4206 39.4072 31.2618Z" fill="#FFD10D"/>
<path d="M38.2638 26.0988C38.0174 26.6256 37.3971 26.8507 36.8703 26.6043C36.3478 26.3579 36.1184 25.7334 36.3648 25.2109C36.6112 24.6841 37.2314 24.4589 37.7582 24.7053C38.2808 24.9432 38.5059 25.572 38.2638 26.0988Z" fill="#FFD10D"/>
<path d="M36.1798 34.755C35.9334 35.2818 35.3131 35.507 34.7863 35.2606C34.2638 35.0142 34.0344 34.3897 34.2808 33.8671C34.5272 33.3403 35.1474 33.1151 35.6742 33.3615C36.201 33.608 36.4219 34.2325 36.1798 34.755Z" fill="#FFD10D"/>
<path d="M42.341 32.6417C41.9502 33.4871 42.3113 34.4939 43.1567 34.8848C44.0021 35.2756 45.0047 34.9145 45.3956 34.0691C45.7864 33.2237 45.4253 32.2168 44.5799 31.826C43.7387 31.4309 42.7319 31.792 42.341 32.6417Z" fill="#FFD10D"/>
<path d="M47.023 30.1945C46.7766 30.7213 47.006 31.3416 47.5285 31.588C48.0511 31.8344 48.6756 31.605 48.922 31.0824C49.1684 30.5556 48.939 29.9354 48.4164 29.689C47.8896 29.4426 47.2694 29.672 47.023 30.1945Z" fill="#FFD10D"/>
<path d="M41.7476 37.3566C41.5012 37.8834 41.7306 38.5037 42.2531 38.7501C42.7757 38.9965 43.4002 38.7671 43.6466 38.2445C43.893 37.7178 43.6636 37.0975 43.141 36.8511C42.6185 36.6047 41.994 36.8341 41.7476 37.3566Z" fill="#FFD10D"/>
<path d="M44.9252 23.2367C44.8487 23.1985 44.768 23.1688 44.6873 23.1348L37.0742 39.4952C37.1507 39.5334 37.2272 39.5716 37.3036 39.6099C37.3801 39.6481 37.4608 39.6779 37.5415 39.7118L45.1546 23.3472C45.0824 23.3089 45.0059 23.275 44.9252 23.2367Z" fill="#231F1F"/>
</svg>
