<svg width="750" height="576" viewBox="0 0 750 576" fill="none" xmlns="http://www.w3.org/2000/svg">
<g filter="url(#filter0_d_0_19464)">
<path d="M15 46.4495C15 28.2893 15 19.2091 20.6417 13.5675C26.2834 7.9258 35.3635 7.92581 53.5238 7.92583L640.965 7.92662C644.287 7.92663 645.948 7.92663 647.34 8.13108C655.755 9.36693 662.363 15.975 663.599 24.3895C663.803 25.7815 663.803 27.4427 663.803 30.7649C663.803 37.4094 663.803 40.7316 664.212 43.5157C666.684 60.3447 679.9 73.5609 696.729 76.0326C699.513 76.4415 702.835 76.4415 709.479 76.4415H711.53C715.806 76.4415 717.944 76.4415 719.725 76.7795C727.499 78.2556 733.58 84.3361 735.056 92.1103C735.394 93.8909 735.394 96.029 735.394 100.305V515.477C735.394 533.637 735.394 542.717 729.752 548.359C724.11 554.001 715.03 554.001 696.87 554.001L53.5236 554C35.3634 554 26.2833 554 20.6417 548.358C15 542.716 15 533.636 15 515.476V46.4495Z" fill="white"/>
<path d="M53.5234 8.40723L640.965 8.4082C644.304 8.40821 645.922 8.40938 647.271 8.60742C655.474 9.81252 661.917 16.2559 663.122 24.46C663.32 25.8083 663.321 27.4259 663.321 30.7646C663.321 37.3921 663.32 40.7583 663.735 43.5859C666.238 60.6252 679.62 74.0062 696.659 76.5088C699.487 76.924 702.852 76.9229 709.479 76.9229H711.53C715.828 76.9229 717.91 76.9255 719.635 77.2529C727.215 78.6921 733.144 84.6204 734.583 92.2002C734.91 93.925 734.912 96.0069 734.912 100.305V515.477C734.912 524.57 734.911 531.342 734.211 536.548C733.513 541.74 732.128 545.302 729.411 548.019C726.695 550.735 723.133 552.12 717.941 552.818C712.736 553.518 705.964 553.52 696.87 553.52L53.5234 553.519C44.4298 553.519 37.6578 553.517 32.4521 552.817C27.2605 552.119 23.6988 550.734 20.9824 548.018C18.266 545.301 16.8806 541.739 16.1826 536.547C15.4828 531.341 15.4814 524.569 15.4814 515.476V46.4492C15.4814 37.3556 15.4827 30.5836 16.1826 25.3779C16.8807 20.1862 18.266 16.6246 20.9824 13.9082C23.6988 11.1918 27.2604 9.80643 32.4521 9.1084C37.6578 8.40852 44.4299 8.40721 53.5234 8.40723Z" stroke="#023E7D" stroke-width="0.963093"/>
</g>
<defs>
<filter id="filter0_d_0_19464" x="0.553601" y="0.221035" width="749.286" height="574.968" filterUnits="userSpaceOnUse" color-interpolation-filters="sRGB">
<feFlood flood-opacity="0" result="BackgroundImageFix"/>
<feColorMatrix in="SourceAlpha" type="matrix" values="0 0 0 0 0 0 0 0 0 0 0 0 0 0 0 0 0 0 127 0" result="hardAlpha"/>
<feOffset dy="6.74165"/>
<feGaussianBlur stdDeviation="7.2232"/>
<feComposite in2="hardAlpha" operator="out"/>
<feColorMatrix type="matrix" values="0 0 0 0 0.0666667 0 0 0 0 0.14902 0 0 0 0 0.572549 0 0 0 0.05 0"/>
<feBlend mode="normal" in2="BackgroundImageFix" result="effect1_dropShadow_0_19464"/>
<feBlend mode="normal" in="SourceGraphic" in2="effect1_dropShadow_0_19464" result="shape"/>
</filter>
</defs>
</svg>
