<svg width="13" height="14" viewBox="0 0 13 14" fill="none" xmlns="http://www.w3.org/2000/svg">
<path d="M2.75 1L1 3.33333V11.5C1 11.8094 1.12292 12.1062 1.34171 12.325C1.5605 12.5438 1.85725 12.6667 2.16667 12.6667H10.3333C10.6428 12.6667 10.9395 12.5438 11.1583 12.325C11.3771 12.1062 11.5 11.8094 11.5 11.5V3.33333L9.75 1H2.75Z" stroke="#747C98" stroke-width="1.16667" stroke-linecap="round" stroke-linejoin="round"/>
<path d="M1 3.33398H11.5" stroke="#747C98" stroke-width="1.16667" stroke-linecap="round" stroke-linejoin="round"/>
<path d="M8.58464 5.66797C8.58464 6.28681 8.3388 6.8803 7.90122 7.31788C7.46363 7.75547 6.87014 8.0013 6.2513 8.0013C5.63246 8.0013 5.03897 7.75547 4.60139 7.31788C4.1638 6.8803 3.91797 6.28681 3.91797 5.66797" stroke="#747C98" stroke-width="1.16667" stroke-linecap="round" stroke-linejoin="round"/>
</svg>
