<svg width="19" height="19" viewBox="0 0 19 19" fill="none" xmlns="http://www.w3.org/2000/svg">
<path d="M18.1619 4.54032L14.1468 0.526101C13.8098 0.189239 13.3529 0 12.8764 0C12.3999 0 11.943 0.189239 11.606 0.526101L0.526491 11.6047C0.359064 11.7711 0.226319 11.9691 0.135946 12.1872C0.0455727 12.4052 -0.00063266 12.6391 6.54237e-06 12.8751V16.8902C6.54237e-06 17.3668 0.18932 17.8238 0.526299 18.1608C0.863279 18.4978 1.32032 18.6871 1.79688 18.6871H16.8906C17.1766 18.6871 17.4508 18.5735 17.653 18.3713C17.8552 18.1692 17.9688 17.8949 17.9688 17.609C17.9688 17.3231 17.8552 17.0488 17.653 16.8466C17.4508 16.6445 17.1766 16.5309 16.8906 16.5309H8.71485L18.1619 7.082C18.3289 6.91513 18.4613 6.71702 18.5516 6.49896C18.642 6.28091 18.6885 6.04719 18.6885 5.81116C18.6885 5.57513 18.642 5.34141 18.5516 5.12336C18.4613 4.9053 18.3289 4.70718 18.1619 4.54032ZM5.66016 16.5309H2.15626V13.027L9.70313 5.48008L13.207 8.98399L5.66016 16.5309ZM14.7344 7.45665L11.2305 3.95274L12.8782 2.30501L16.3821 5.80891L14.7344 7.45665Z" fill="#023E7D"/>
</svg>
