<svg width="19" height="20" viewBox="0 0 19 20" fill="none" xmlns="http://www.w3.org/2000/svg">
<path d="M14.5059 4H1.38086C1.08249 4 0.796343 4.11853 0.585364 4.3295C0.374386 4.54048 0.255859 4.82663 0.255859 5.125V18.25C0.255859 18.5484 0.374386 18.8345 0.585364 19.0455C0.796343 19.2565 1.08249 19.375 1.38086 19.375H14.5059C14.8042 19.375 15.0904 19.2565 15.3014 19.0455C15.5123 18.8345 15.6309 18.5484 15.6309 18.25V5.125C15.6309 4.82663 15.5123 4.54048 15.3014 4.3295C15.0904 4.11853 14.8042 4 14.5059 4ZM13.3809 17.125H2.50586V6.25H13.3809V17.125ZM19.0059 1.75V14.875C19.0059 15.1734 18.8873 15.4595 18.6764 15.6705C18.4654 15.8815 18.1792 16 17.8809 16C17.5825 16 17.2963 15.8815 17.0854 15.6705C16.8744 15.4595 16.7559 15.1734 16.7559 14.875V2.875H4.75586C4.45749 2.875 4.17134 2.75647 3.96036 2.5455C3.74939 2.33452 3.63086 2.04837 3.63086 1.75C3.63086 1.45163 3.74939 1.16548 3.96036 0.954505C4.17134 0.743526 4.45749 0.625 4.75586 0.625H17.8809C18.1792 0.625 18.4654 0.743526 18.6764 0.954505C18.8873 1.16548 19.0059 1.45163 19.0059 1.75Z" fill="#023E7D"/>
</svg>
