<svg width="16" height="13" viewBox="0 0 16 13" fill="none" xmlns="http://www.w3.org/2000/svg">
<path d="M14.75 11.75H1" stroke="#747C98" stroke-width="1.25" stroke-linecap="round" stroke-linejoin="round"/>
<path d="M7.8749 0C8.28145 0 8.61123 0.329784 8.61123 0.736328V7.11133L10.2978 5.4248C10.5852 5.13737 11.0513 5.13745 11.3388 5.4248C11.6262 5.71227 11.6262 6.17835 11.3388 6.46582L8.39444 9.41016C8.3299 9.47469 8.25516 9.52206 8.17666 9.55762C8.17058 9.56037 8.16526 9.56479 8.15908 9.56738C8.12546 9.58152 8.09056 9.59069 8.05557 9.59961C8.04312 9.60277 8.03115 9.60784 8.01846 9.61035C8.01262 9.61152 8.00674 9.61226 8.00088 9.61328C7.96582 9.61934 7.93003 9.62214 7.89346 9.62305C7.87909 9.62343 7.86486 9.6235 7.85049 9.62305C7.81693 9.62195 7.78414 9.61873 7.75186 9.61328C7.60609 9.58882 7.4659 9.52263 7.35342 9.41016L4.40908 6.46582C4.12161 6.17835 4.12161 5.71227 4.40908 5.4248C4.69655 5.13733 5.16263 5.13733 5.4501 5.4248L7.13858 7.11328V0.736328C7.13858 0.329784 7.46836 0 7.8749 0Z" fill="#747C98"/>
</svg>
