<svg width="21" height="20" viewBox="0 0 21 20" fill="none" xmlns="http://www.w3.org/2000/svg">
<path d="M12.9058 7.57424L8.04049 12.4216C7.41549 11.7989 7.03088 10.9463 7.03088 9.99792C7.03088 8.10112 8.56932 6.56836 10.4731 6.56836C11.4251 6.56836 12.2808 6.95155 12.9058 7.57424Z" stroke="#CCD8E5" stroke-width="0.836121" stroke-linecap="round" stroke-linejoin="round"/>
<path d="M16.0693 4.02971C14.3866 2.76518 12.4636 2.07544 10.4732 2.07544C7.07904 2.07544 3.91562 4.06803 1.71373 7.51675C0.848354 8.8675 0.848354 11.1379 1.71373 12.4887C2.47333 13.6765 3.35794 14.7016 4.31946 15.5254" stroke="#CCD8E5" stroke-width="0.836121" stroke-linecap="round" stroke-linejoin="round"/>
<path d="M7.03088 17.2108C8.12702 17.6706 9.29047 17.9197 10.4731 17.9197C13.8673 17.9197 17.0308 15.9271 19.2326 12.4784C20.098 11.1276 20.098 8.85724 19.2326 7.50649C18.9153 7.00835 18.5692 6.53894 18.2134 6.09827" stroke="#CCD8E5" stroke-width="0.836121" stroke-linecap="round" stroke-linejoin="round"/>
<path d="M13.8483 10.6684C13.5983 12.0191 12.4926 13.1208 11.1368 13.3699" stroke="#CCD8E5" stroke-width="0.836121" stroke-linecap="round" stroke-linejoin="round"/>
<path d="M8.04075 12.4217L0.858154 19.5778" stroke="#CCD8E5" stroke-width="0.836121" stroke-linecap="round" stroke-linejoin="round"/>
<path d="M20.0887 0.417969L12.9061 7.57406" stroke="#CCD8E5" stroke-width="0.836121" stroke-linecap="round" stroke-linejoin="round"/>
</svg>
