<svg width="26" height="25" viewBox="0 0 26 25" fill="none" xmlns="http://www.w3.org/2000/svg">
<path d="M10.7871 13.5935C11.2622 14.2286 11.8683 14.7542 12.5644 15.1345C13.2604 15.5147 14.0301 15.7409 14.8213 15.7976C15.6124 15.8542 16.4065 15.7401 17.1496 15.4628C17.8928 15.1856 18.5676 14.7518 19.1284 14.1909L22.4472 10.8721C23.4548 9.82885 24.0123 8.43162 23.9997 6.98132C23.9871 5.53102 23.4054 4.1437 22.3798 3.11814C21.3542 2.09258 19.9669 1.51086 18.5166 1.49826C17.0663 1.48565 15.6691 2.04318 14.6259 3.05076L12.7231 4.94248" stroke="#023E7D" stroke-width="2.71535" stroke-linecap="round" stroke-linejoin="round"/>
<path d="M15.2128 11.3803C14.7377 10.7452 14.1316 10.2196 13.4355 9.83933C12.7394 9.45904 11.9697 9.2329 11.1786 9.17624C10.3875 9.11958 9.5934 9.23373 8.85025 9.51095C8.1071 9.78816 7.43227 10.222 6.87152 10.7829L3.55271 14.1017C2.54513 15.1449 1.98761 16.5422 2.00021 17.9925C2.01281 19.4428 2.59454 20.8301 3.62009 21.8557C4.64565 22.8812 6.03298 23.4629 7.48328 23.4755C8.93358 23.4881 10.3308 22.9306 11.374 21.923L13.2657 20.0313" stroke="#023E7D" stroke-width="2.71535" stroke-linecap="round" stroke-linejoin="round"/>
</svg>
