<svg width="28" height="29" viewBox="0 0 28 29" fill="none" xmlns="http://www.w3.org/2000/svg">
<path d="M13.9993 20.5874C15.0176 20.5874 15.8431 19.7619 15.8431 18.7435C15.8431 17.7252 15.0176 16.8997 13.9993 16.8997C12.9809 16.8997 12.1554 17.7252 12.1554 18.7435C12.1554 19.7619 12.9809 20.5874 13.9993 20.5874Z" fill="#CCD8E5"/>
<path d="M21.1033 11.7413V10.3273C21.1033 7.27304 20.368 3.22333 13.9993 3.22333C7.63062 3.22333 6.89534 7.27304 6.89534 10.3273V11.7413C3.72796 12.1372 2.68726 13.7435 2.68726 17.6914V19.7955C2.68726 24.4334 4.10126 25.8474 8.73921 25.8474H19.2594C23.8974 25.8474 25.3114 24.4334 25.3114 19.7955V17.6914C25.3114 13.7435 24.2707 12.1372 21.1033 11.7413ZM13.9993 22.1597C12.1102 22.1597 10.5831 20.6213 10.5831 18.7435C10.5831 16.8544 12.1215 15.3272 13.9993 15.3272C15.8771 15.3272 17.4156 16.8657 17.4156 18.7435C17.4156 20.6326 15.8884 22.1597 13.9993 22.1597ZM8.73921 11.6395C8.64871 11.6395 8.56953 11.6395 8.47903 11.6395V10.3273C8.47903 7.01287 9.41793 4.80702 13.9993 4.80702C18.5807 4.80702 19.5196 7.01287 19.5196 10.3273V11.6508C19.4291 11.6508 19.3499 11.6508 19.2594 11.6508H8.73921V11.6395Z" fill="#CCD8E5"/>
</svg>
