<svg width="73" height="73" viewBox="0 0 73 73" fill="none" xmlns="http://www.w3.org/2000/svg">
<path d="M54.5835 29.084V25.584C54.5835 18.024 52.7635 8 36.9995 8C21.2355 8 19.4155 18.024 19.4155 25.584V29.084C11.5755 30.064 8.99951 34.04 8.99951 43.812V49.02C8.99951 60.5 12.4995 64 23.9795 64H50.0195C61.4995 64 64.9995 60.5 64.9995 49.02V43.812C64.9995 34.04 62.4235 30.064 54.5835 29.084ZM36.9995 54.872C32.3235 54.872 28.5435 51.064 28.5435 46.416C28.5435 41.74 32.3515 37.96 36.9995 37.96C41.6475 37.96 45.4555 41.768 45.4555 46.416C45.4555 51.092 41.6755 54.872 36.9995 54.872ZM23.9795 28.832C23.7555 28.832 23.5595 28.832 23.3355 28.832V25.584C23.3355 17.38 25.6595 11.92 36.9995 11.92C48.3395 11.92 50.6635 17.38 50.6635 25.584V28.86C50.4395 28.86 50.2435 28.86 50.0195 28.86H23.9795V28.832Z" fill="white"/>
<circle cx="36.3091" cy="46.9542" r="9.90094" fill="white"/>
<path fill-rule="evenodd" clip-rule="evenodd" d="M24.6903 48.9227C23.6807 47.9007 23.6807 46.2437 24.6903 45.2217C25.7 44.1997 27.3369 44.1997 28.3466 45.2217L31.6372 48.5526C31.8391 48.757 32.1665 48.757 32.3684 48.5526L42.9715 37.8197C43.9812 36.7977 45.6181 36.7977 46.6278 37.8197C47.6374 38.8417 47.6374 40.4987 46.6278 41.5207L32.3684 55.9546C32.1665 56.159 31.8391 56.159 31.6372 55.9546L24.6903 48.9227Z" fill="#023E7D"/>
</svg>
