<svg width="229" height="49" viewBox="0 0 229 49" fill="none" xmlns="http://www.w3.org/2000/svg">
<path d="M226.017 31.8522L229 34.7851C226.713 36.6409 224.095 37.5689 221.146 37.5689C217.467 37.5689 214.518 36.3924 212.298 34.0395C210.077 31.6534 208.967 28.6874 208.967 25.1414C208.967 21.6617 210.127 18.7289 212.447 16.3428C214.8 13.9236 217.699 12.714 221.146 12.714C224.095 12.714 226.713 13.6419 229 15.4977L226.067 18.4803C224.675 17.4198 223.035 16.8896 221.146 16.8896C218.859 16.8896 217.037 17.6518 215.678 19.1763C214.352 20.6675 213.689 22.6559 213.689 25.1414C213.689 27.6269 214.352 29.6319 215.678 31.1563C217.037 32.6476 218.859 33.3932 221.146 33.3932C223.068 33.3932 224.692 32.8796 226.017 31.8522Z" fill="white"/>
<path d="M186.929 13.2102H195.529C199.207 13.2102 201.842 13.757 203.433 14.8507C204.858 15.8117 205.752 16.9716 206.117 18.3303C206.515 19.6559 206.713 21.4123 206.713 23.5996V37.0709H202.339V23.6493C202.339 23.0528 202.322 22.5557 202.289 22.158C202.256 21.7272 202.14 21.1969 201.941 20.5673C201.742 19.9045 201.461 19.3742 201.096 18.9766C200.732 18.5458 200.201 18.1812 199.505 17.883C198.81 17.5516 197.964 17.3859 196.97 17.3859H191.303V37.0709H186.929V13.2102Z" fill="white"/>
<path d="M164.155 13.2102H168.529V25.6874C168.529 28.3717 168.944 30.2441 169.772 31.3046C170.601 32.3651 172.125 32.8953 174.345 32.8953H179.565V13.2102H183.939V35.8779C183.939 40.0204 182.846 43.1355 180.659 45.2233C178.504 47.3442 175.108 48.4047 170.468 48.4047H166.889V44.2291H170.021C176.085 44.2291 179.267 41.843 179.565 37.0709H175.389C171.048 37.0709 168.082 36.3087 166.491 34.7843C164.934 33.2598 164.155 30.1613 164.155 25.4885V13.2102Z" fill="white"/>
<path d="M161.911 13.2102V17.3859H153.113C152.152 17.3859 151.323 17.5681 150.627 17.9327C149.931 18.2972 149.583 18.8109 149.583 19.4737C149.583 19.8713 149.666 20.2359 149.832 20.5673C149.998 20.8655 150.18 21.1141 150.379 21.3129C150.611 21.5118 150.942 21.7272 151.373 21.9592C151.837 22.158 152.185 22.3071 152.417 22.4065C152.682 22.4728 153.742 22.8042 155.598 23.4007C157.454 23.9973 158.829 24.4943 159.724 24.892C160.619 25.2897 161.298 25.8365 161.762 26.5324C162.259 27.1952 162.574 27.858 162.707 28.5208C162.839 29.1505 162.906 29.7801 162.906 30.4098C162.906 34.8505 159.857 37.0709 153.759 37.0709H145.159V32.8953H153.759C156.874 32.8953 158.432 32.0668 158.432 30.4098C158.432 29.6144 157.968 28.9517 157.04 28.4214C156.145 27.8912 155.035 27.4438 153.709 27.0793C152.417 26.7147 151.108 26.3005 149.782 25.8365C148.49 25.3394 147.38 24.5606 146.452 23.5002C145.557 22.4065 145.11 21.0644 145.11 19.4737C145.11 17.4521 145.888 15.9111 147.446 14.8507C149.003 13.757 150.892 13.2102 153.113 13.2102H161.911Z" fill="white"/>
<path d="M136.616 23.0528V27.5266C135.357 26.5656 133.816 26.0851 131.993 26.0851C130.436 26.0851 129.226 26.3999 128.365 27.0295C127.503 27.6261 127.072 28.4877 127.072 29.6144C127.072 31.8017 128.696 32.8953 131.944 32.8953H138.505V23.4007C138.505 19.3908 136.55 17.3859 132.64 17.3859H124.686V13.2102H132.888C136.103 13.2102 138.572 14.0056 140.295 15.5963C142.018 17.187 142.88 19.4737 142.88 22.4563V37.0709H131.795C128.978 37.0709 126.741 36.4412 125.084 35.1819C123.427 33.9226 122.598 32.0834 122.598 29.6642C122.598 27.245 123.476 25.4057 125.233 24.1464C126.989 22.8871 129.193 22.2574 131.844 22.2574C133.336 22.2574 134.926 22.5225 136.616 23.0528Z" fill="white"/>
<path d="M105.973 17.3871L114.871 8.48908V13.2115H121.582V17.3871H114.871V27.6273C114.871 28.7872 115.053 29.7483 115.418 30.5105C115.815 31.2727 116.379 31.8195 117.108 32.1509C117.837 32.4492 118.516 32.648 119.146 32.7474C119.809 32.8468 120.621 32.8966 121.582 32.8966V37.0722C117.771 37.0722 114.954 36.3431 113.131 34.8849C111.308 33.4268 110.397 31.0076 110.397 27.6273V17.3871H105.973Z" fill="white"/>
<path d="M99.7111 23.0528V27.5266C98.4518 26.5656 96.9108 26.0851 95.0881 26.0851C93.5305 26.0851 92.3209 26.3999 91.4593 27.0295C90.5976 27.6261 90.1668 28.4877 90.1668 29.6144C90.1668 31.8017 91.7907 32.8953 95.0384 32.8953H101.6V23.4007C101.6 19.3908 99.6448 17.3859 95.7343 17.3859H87.7808V13.2102H95.9829C99.1974 13.2102 101.666 14.0056 103.39 15.5963C105.113 17.187 105.975 19.4737 105.975 22.4563V37.0709H94.8893C92.0724 37.0709 89.8354 36.4412 88.1784 35.1819C86.5215 33.9226 85.693 32.0834 85.693 29.6642C85.693 27.245 86.5712 25.4057 88.3276 24.1464C90.084 22.8871 92.2878 22.2574 94.939 22.2574C96.4303 22.2574 98.021 22.5225 99.7111 23.0528Z" fill="white"/>
<path d="M78.9885 2.27467H83.4624V37.0715H71.7806C68.1684 37.0715 65.2355 35.9282 62.982 33.6415C60.7285 31.3217 59.6018 28.4054 59.6018 24.8926C59.6018 21.4461 60.7616 18.5629 63.0814 16.2431C65.4344 13.8902 68.2181 12.7137 71.4327 12.7137C73.4873 12.7137 75.4094 13.2108 77.199 14.205V18.6789C75.542 17.4858 73.6199 16.8893 71.4327 16.8893C69.4443 16.8893 67.7541 17.635 66.3623 19.1263C65.0035 20.5844 64.3242 22.5065 64.3242 24.8926C64.3242 27.3118 64.9704 29.2505 66.2629 30.7086C67.5884 32.1668 69.4277 32.8959 71.7806 32.8959H78.9885V2.27467Z" fill="white"/>
<path d="M10.862 17.1165C10.0617 16.3191 10.0617 15.0215 10.862 14.224C11.6624 13.4266 12.9648 13.4266 13.7652 14.224C14.5656 15.0215 14.5656 16.3191 13.7652 17.1165C12.9648 17.9139 11.6624 17.9139 10.862 17.1165Z" fill="white"/>
<path d="M14.7379 38.2412C13.9375 37.4438 13.9375 36.1462 14.7379 35.3487C15.5383 34.5513 16.8407 34.5513 17.6411 35.3487C18.4414 36.1462 18.4414 37.4438 17.6411 38.2412C16.8407 39.0386 15.5383 39.0386 14.7379 38.2412Z" fill="white"/>
<path d="M41.882 20.9076C41.882 20.9076 43.2197 16.3059 43.8149 12.2483C44.2054 9.57302 43.7061 7.64019 41.3508 5.76496C38.9955 3.88973 34.1824 4.85615 31.7183 6.24497C29.2542 7.63379 11.3269 16.6259 11.3269 16.6259C11.3269 16.6259 25.2924 4.79855 30.3807 1.9633C35.4689 -0.871948 40.3332 -0.443141 43.9174 2.0145C47.5015 4.47854 48.8392 9.34262 47.7191 14.7507C46.5927 20.1524 45.3126 24.8117 45.3126 24.8117L41.8884 20.9076H41.882Z" fill="white"/>
<path d="M20.9083 6.57171C20.9083 6.57171 16.3065 5.23409 12.2487 4.63888C9.57336 4.24847 7.64046 4.74768 5.76516 7.10292C3.88987 9.45816 4.85632 14.271 6.24519 16.7351C7.63406 19.1991 16.6265 37.1258 16.6265 37.1258C16.6265 37.1258 4.79871 23.1608 1.96337 18.0727C-0.871978 12.991 -0.443156 8.12053 2.01457 4.53647C4.4787 0.952414 9.34935 -0.385208 14.7512 0.741211C20.1531 1.86763 24.8125 3.14765 24.8125 3.14765L20.9083 6.57171Z" fill="white"/>
<path d="M6.22247 27.7043C6.22247 27.7043 4.8848 32.306 4.28957 36.37C3.89915 39.0453 4.39838 40.9781 6.7537 42.8534C9.10902 44.7286 13.9221 43.7622 16.3862 42.3733C18.8503 40.9845 36.7776 31.9924 36.7776 31.9924C36.7776 31.9924 22.8121 43.8198 17.7239 46.655C12.642 49.4903 7.77135 49.0615 4.18716 46.6038C0.60298 44.1398 -0.734689 39.2757 0.385369 33.8676C1.51183 28.4659 2.79189 23.8066 2.79189 23.8066L6.21607 27.7107L6.22247 27.7043Z" fill="white"/>
<path d="M27.1989 42.0352C27.1989 42.0352 31.8007 43.3728 35.8585 43.968C38.5339 44.3584 40.4668 43.8592 42.3421 41.504C44.2174 39.1487 43.2509 34.3358 41.8621 31.8718C40.4732 29.4078 31.4807 11.4811 31.4807 11.4811C31.4807 11.4811 43.3085 25.4461 46.1439 30.5342C48.9792 35.6159 48.5504 40.4863 46.0927 44.0704C43.6285 47.6545 38.7643 48.9921 33.356 47.8721C27.9541 46.7456 23.2947 45.4656 23.2947 45.4656L27.1989 42.0416V42.0352Z" fill="white"/>
<path d="M30.2429 13.4843C29.4425 12.6868 29.4425 11.3892 30.2429 10.5918C31.0433 9.79437 32.3457 9.79437 33.1461 10.5918C33.9464 11.3892 33.9464 12.6868 33.1461 13.4843C32.3457 14.2817 31.0433 14.2817 30.2429 13.4843Z" fill="white"/>
<path d="M34.3403 34.1526C33.5399 33.3552 33.5399 32.0576 34.3403 31.2601C35.1407 30.4627 36.4431 30.4627 37.2435 31.2601C38.0439 32.0576 38.0439 33.3552 37.2435 34.1526C36.4431 34.95 35.1407 34.95 34.3403 34.1526Z" fill="white"/>
<path d="M24.0051 27.4525C25.7817 27.4525 27.2219 26.0174 27.2219 24.247C27.2219 22.4767 25.7817 21.0416 24.0051 21.0416C22.2285 21.0416 20.7883 22.4767 20.7883 24.247C20.7883 26.0174 22.2285 27.4525 24.0051 27.4525Z" fill="white"/>
</svg>
