<svg width="13" height="14" viewBox="0 0 13 14" fill="none" xmlns="http://www.w3.org/2000/svg">
<path d="M11.6756 12.014C12.0975 11.8796 12.5495 12.1057 12.6868 12.5186C12.8241 12.9314 12.593 13.3738 12.1711 13.5081C11.1499 13.8358 10.1153 14.0013 9.12082 14.0013C7.64421 14.0013 6.24294 13.6392 5.08107 12.9118C3.90079 12.1745 2.97833 11.0703 2.48445 9.59906C2.40911 9.37624 2.34382 9.1436 2.29025 8.9044H0.803596C0.359944 8.9044 0 8.55216 0 8.11799C0 7.68383 0.359944 7.33159 0.803596 7.33159H2.09605C2.0927 7.23657 2.09102 7.14154 2.09102 7.04488C2.09102 6.95477 2.09102 6.8663 2.09605 6.77783H0.803596C0.359944 6.77783 0 6.42558 0 5.99142C0 5.55726 0.359944 5.20502 0.803596 5.20502H2.30699C2.38735 4.87899 2.4878 4.56443 2.60834 4.26297C3.14742 2.91461 4.07155 1.84805 5.2217 1.11735C6.36683 0.391564 7.72959 0 9.15263 0C10.1086 0 11.0947 0.176941 12.0623 0.547207C12.4742 0.704488 12.6784 1.15995 12.5177 1.56462C12.357 1.96765 11.8915 2.16753 11.478 2.01025C10.7062 1.71535 9.91772 1.57281 9.15095 1.57281C8.03429 1.57281 6.97455 1.87427 6.09226 2.43294C5.21668 2.98834 4.51186 3.80423 4.10001 4.83475C4.05146 4.95435 4.00794 5.07887 3.96776 5.20502H8.9986C9.44226 5.20502 9.8022 5.55726 9.8022 5.99142C9.8022 6.42558 9.44226 6.77783 8.9986 6.77783H3.70157C3.69822 6.8663 3.69654 6.95477 3.69654 7.04488C3.69654 7.14154 3.69654 7.23657 3.70157 7.33159H8.9986C9.44226 7.33159 9.8022 7.68383 9.8022 8.11799C9.8022 8.55216 9.44226 8.9044 8.9986 8.9044H3.94432C3.96441 8.97485 3.98617 9.0453 4.00961 9.11247C4.38127 10.2184 5.066 11.0441 5.94159 11.5896C6.83559 12.1483 7.93886 12.4268 9.12082 12.4268C9.95287 12.4268 10.8184 12.2892 11.6756 12.014Z" fill="#023E7D"/>
</svg>
