<svg width="20" height="24" viewBox="0 0 20 24" fill="none" xmlns="http://www.w3.org/2000/svg">
<path d="M16.2695 13.6453C15.539 12.7923 15.2071 12.0531 15.2071 10.7972V10.3701C15.2071 8.73354 14.8304 7.67907 14.0115 6.62459C12.7493 4.98699 10.6244 4 8.54423 4H8.45577C6.41935 4 4.36106 4.94167 3.077 6.5128C2.21333 7.58842 1.79293 8.68822 1.79293 10.3701V10.7972C1.79293 12.0531 1.48284 12.7923 0.730488 13.6453C0.176907 14.2738 0 15.0815 0 15.9557C0 16.8309 0.287226 17.6598 0.863666 18.3336C1.61602 19.1413 2.67846 19.6569 3.76375 19.7466C5.33505 19.9258 6.90634 19.9933 8.5005 19.9933C10.0937 19.9933 11.665 19.8805 13.2372 19.7466C14.3215 19.6569 15.384 19.1413 16.1363 18.3336C16.7118 17.6598 17 16.8309 17 15.9557C17 15.0815 16.8231 14.2738 16.2695 13.6453Z" fill="#CBDAFF"/>
<path opacity="0.4" d="M10.5097 21.2283C10.0098 21.1215 6.96364 21.1215 6.46372 21.2283C6.03636 21.327 5.57422 21.5566 5.57422 22.0602C5.59907 22.5406 5.88033 22.9646 6.26992 23.2335L6.26893 23.2345C6.77282 23.6273 7.36416 23.877 7.98334 23.9667C8.3133 24.012 8.64923 24.01 8.99111 23.9667C9.6093 23.877 10.2006 23.6273 10.7045 23.2345L10.7035 23.2335C11.0931 22.9646 11.3744 22.5406 11.3992 22.0602C11.3992 21.5566 10.9371 21.327 10.5097 21.2283Z" fill="#C1D3FF"/>
<circle cx="15" cy="5" r="4" fill="#DC3545" stroke="white" stroke-width="2"/>
</svg>
