<svg width="12" height="12" viewBox="0 0 12 12" fill="none" xmlns="http://www.w3.org/2000/svg">
<path d="M1.19424 3.58272H1.36484C2.02167 3.58272 2.55908 4.12012 2.55908 4.77695V10.7481C2.55908 11.405 2.02167 11.9424 1.36484 11.9424H1.19424C0.537407 11.9424 0 11.405 0 10.7481V4.77695C0 4.12012 0.537407 3.58272 1.19424 3.58272ZM5.97119 0C6.62802 0 7.16543 0.537407 7.16543 1.19424V10.7481C7.16543 11.405 6.62802 11.9424 5.97119 11.9424C5.31436 11.9424 4.77695 11.405 4.77695 10.7481V1.19424C4.77695 0.537407 5.31436 0 5.97119 0ZM10.7481 6.82422C11.405 6.82422 11.9424 7.36163 11.9424 8.01846V10.7481C11.9424 11.405 11.405 11.9424 10.7481 11.9424C10.0913 11.9424 9.55391 11.405 9.55391 10.7481V8.01846C9.55391 7.36163 10.0913 6.82422 10.7481 6.82422Z" fill="#747C98"/>
</svg>
