<svg width="23" height="21" viewBox="0 0 23 21" fill="none" xmlns="http://www.w3.org/2000/svg">
<path d="M6.05506 1.99498C7.95356 0.948329 10.1411 0.546021 12.2875 0.850445C14.4239 1.15356 16.4044 2.14079 17.934 3.66197H17.9349L20.8793 6.43443V2.74986C20.8793 2.19763 21.327 1.74986 21.8793 1.74986C22.4313 1.75008 22.8792 2.19776 22.8793 2.74986V8.74986C22.8793 8.76391 22.8769 8.77794 22.8763 8.79185C22.8758 8.80521 22.8755 8.81855 22.8744 8.83189C22.873 8.84898 22.8708 8.86583 22.8685 8.88267C22.8666 8.89737 22.8643 8.91199 22.8617 8.92662C22.8465 9.01167 22.8208 9.09265 22.7855 9.1688C22.7799 9.18095 22.7741 9.19297 22.7679 9.20494C22.7593 9.22185 22.7502 9.23841 22.7406 9.25474C22.7348 9.26455 22.7291 9.27439 22.723 9.28404C22.6925 9.33214 22.6575 9.37673 22.6195 9.4188C22.6149 9.42394 22.6116 9.43034 22.6068 9.43541C22.6042 9.43816 22.6006 9.4405 22.598 9.44322C22.5839 9.45783 22.569 9.47148 22.5541 9.48521C22.5435 9.49495 22.5328 9.50433 22.5219 9.51353C22.5091 9.52429 22.4961 9.53466 22.4828 9.54478C22.4704 9.55426 22.4585 9.56428 22.4457 9.5731C22.3769 9.62057 22.3018 9.65914 22.222 9.68834C22.2091 9.69308 22.1961 9.69781 22.183 9.70201C22.1698 9.7062 22.1563 9.70909 22.1429 9.71275C22.1248 9.71773 22.1066 9.72248 22.0883 9.72642C22.0737 9.72952 22.0591 9.73177 22.0443 9.73423C22.0274 9.73708 22.0106 9.74007 21.9935 9.74205C21.979 9.74371 21.9643 9.74492 21.9496 9.74595C21.9288 9.74744 21.908 9.74869 21.8871 9.74888C21.8845 9.7489 21.8819 9.74986 21.8793 9.74986H15.8793C15.327 9.74986 14.8793 9.30214 14.8793 8.74986C14.8793 8.19763 15.327 7.74986 15.8793 7.74986H19.3588L16.5638 5.11802C16.5565 5.11114 16.5485 5.10365 16.5414 5.09654C15.3154 3.86992 13.7233 3.07455 12.0062 2.83091C10.2892 2.58746 8.53863 2.90865 7.0199 3.74595C5.50119 4.58342 4.29588 5.8924 3.58533 7.47447C2.87477 9.05679 2.69729 10.8277 3.08045 12.5194C3.46361 14.2108 4.38659 15.7317 5.70935 16.8534C7.03234 17.975 8.68488 18.6368 10.4164 18.7381C12.1476 18.8392 13.8654 18.3754 15.3099 17.4159C16.7545 16.4561 17.8484 15.0522 18.4262 13.4169L18.4652 13.3221C18.6815 12.8639 19.2144 12.634 19.7025 12.8065C20.2229 12.9906 20.4956 13.5623 20.3119 14.0829C19.5897 16.1271 18.2222 17.8812 16.4164 19.0809C14.6105 20.2806 12.4635 20.8617 10.2992 20.7352C8.13493 20.6086 6.07008 19.7816 4.41639 18.3797C2.76261 16.9776 1.60921 15.0754 1.13025 12.9608C0.651312 10.8462 0.872912 8.63303 1.76111 6.65513C2.64935 4.67745 4.15653 3.0418 6.05506 1.99498Z" fill="#023E7D"/>
</svg>
