<svg width="59" height="59" viewBox="0 0 59 59" fill="none" xmlns="http://www.w3.org/2000/svg">
<rect y="59" width="59" height="59" rx="15.7333" transform="rotate(-90 0 59)" fill="#FF6621"/>
<path d="M0 19.666H58.6722V39.3327H0V19.666Z" fill="black"/>
<g clip-path="url(#clip0_0_21344)">
<path d="M23.0609 30.3216H17.4189C17.6792 31.3809 18.5365 32.1798 19.6541 32.1798C20.2825 32.1798 20.9019 31.9105 21.3149 31.4437L22.6794 31.4752C22.0779 32.6152 20.9334 33.3469 19.6048 33.3469C17.6657 33.3469 16.1397 31.6637 16.1397 29.7606C16.1397 27.7946 17.6388 26.1832 19.6317 26.1832C21.5617 26.1832 23.1013 27.7722 23.1013 29.6887C23.0968 29.8952 23.0833 30.1196 23.0609 30.3216ZM19.6137 27.3457C18.5096 27.3457 17.4862 28.2165 17.4144 29.3386H21.8131C21.7458 28.2255 20.7269 27.3457 19.6137 27.3457ZM28.7119 33.1763V29.4778C28.7119 28.3242 28.3663 27.3502 27.0108 27.3502C25.7585 27.3502 25.2154 28.3197 25.2154 29.4688V33.1808H23.9406V26.3673H25.1346V27.0899H25.157C25.6508 26.4391 26.3644 26.1787 27.1499 26.1787C28.1194 26.1787 29.0306 26.5603 29.5602 27.3951C29.8879 27.9113 29.9911 28.5352 29.9911 29.1411V33.1763H28.7119ZM36.7867 33.1763V32.2068H36.7643C36.1987 32.9968 35.301 33.3469 34.3539 33.3469C32.3117 33.3469 30.8125 31.8253 30.8125 29.7965C30.8125 27.7542 32.2892 26.1787 34.3539 26.1787C35.2112 26.1787 36.1224 26.5064 36.6655 27.1976H36.688V24.0781H37.9627V33.1763H36.7867ZM34.4258 27.3457C33.0747 27.3457 32.0917 28.4499 32.0917 29.783C32.0917 31.0577 33.1151 32.1843 34.4168 32.1843C35.7454 32.1843 36.7867 31.1026 36.7867 29.783C36.7867 28.4185 35.8172 27.3457 34.4258 27.3457ZM41.6657 35.452H40.3416L41.3335 33.0416L38.618 26.3673H39.996L42.0023 31.6547L44.0536 26.3673H45.4315L41.6657 35.452ZM49.0672 33.3469C47.0608 33.3469 45.3911 31.7355 45.3911 29.7202C45.3911 27.7138 47.1012 26.1787 49.0672 26.1787C51.0601 26.1787 52.7433 27.7273 52.7433 29.7426C52.7433 31.6861 51.1319 33.3469 49.0672 33.3469ZM49.0672 27.3457C47.7386 27.3457 46.6659 28.4275 46.6659 29.7561C46.6659 31.0847 47.7341 32.1798 49.0672 32.1798C50.4093 32.1798 51.4685 31.0757 51.4685 29.7471C51.4641 28.4185 50.3913 27.3457 49.0672 27.3457ZM53.7846 33.1763V24.0781H55.0683V33.1763H53.7846ZM6.51185 31.8342C6.56571 32.0497 6.63753 32.2292 6.71832 32.3639C6.79911 32.4985 6.90683 32.6152 7.02802 32.7274C7.43199 33.082 7.94368 33.2616 8.54962 33.2616C9.15108 33.2616 9.71214 33.1135 10.2238 32.8307V31.6053C9.69419 31.915 9.18699 32.0766 8.71121 32.0766C8.06486 32.0766 7.72823 31.6816 7.72823 30.9006V27.5657H9.87373V26.3852H7.74169V24.1993H6.47594V26.3807H5.24609V27.5612H6.42208V30.5864C6.42208 31.2014 6.4535 31.6188 6.51185 31.8342ZM14.2455 27.5073C14.6405 27.5073 15.0759 27.7228 15.5382 28.1582L16.2339 27.0046C15.6684 26.4884 14.9861 26.2506 14.5866 26.2506H14.4969C14.039 26.2506 13.2715 26.2506 12.6521 27.2605L12.6297 27.3009L12.6341 26.3852H11.31V33.1359H12.6341V29.6079C12.6341 29.0424 12.7912 28.5487 13.1099 28.1312C13.4286 27.7183 13.8101 27.5073 14.2455 27.5073Z" fill="white"/>
</g>
<defs>
<clipPath id="clip0_0_21344">
<rect width="49.8222" height="20.1982" fill="white" transform="translate(5.24609 19.666)"/>
</clipPath>
</defs>
</svg>
