<svg width="59" height="59" viewBox="0 0 59 59" fill="none" xmlns="http://www.w3.org/2000/svg">
<rect y="59" width="59" height="59" rx="15.7333" transform="rotate(-90 0 59)" fill="#F28B02"/>
<path d="M10.5111 17.8702C10.9648 18.0606 11.3577 18.3719 11.6469 18.77C11.884 19.0799 12.0422 19.4428 12.1078 19.8275C12.176 20.4161 12.2041 21.0087 12.1918 21.6012V26.9932H9.74223V21.4075C9.76004 20.9939 9.67387 20.5825 9.49162 20.2107C9.37157 19.994 9.19011 19.8175 8.97004 19.7036C8.74998 19.5897 8.50115 19.5434 8.25484 19.5705C7.9824 19.5534 7.70985 19.6023 7.46036 19.7131C7.21086 19.8238 6.99179 19.9932 6.82175 20.2067C6.46371 20.7419 6.292 21.3802 6.33317 22.0228V26.9945H3.93359V14.4688H6.33317V18.6014C6.63634 18.2627 7.01734 18.0028 7.44331 17.8442C7.93269 17.6619 8.45118 17.5704 8.97337 17.5742C9.50073 17.5673 10.024 17.668 10.5111 17.8702Z" fill="white"/>
<path d="M19.6215 18.0043C20.2682 18.2967 20.8182 18.7675 21.2068 19.3614C21.5917 19.9299 21.8416 20.5787 21.9377 21.2584C22.0113 21.8623 22.0377 22.4711 22.0167 23.0791H15.3345C15.3719 23.9996 15.6917 24.6449 16.294 25.0151C16.693 25.254 17.152 25.3737 17.6168 25.36C17.9918 25.3894 18.3668 25.3046 18.6927 25.1168C19.0185 24.929 19.2799 24.647 19.4425 24.3079H21.8917C21.7811 24.9419 21.4692 25.5234 21.0022 25.9662C20.1801 26.8585 19.0296 27.3047 17.5505 27.3047C16.3736 27.3204 15.2289 26.9206 14.3177 26.1755C13.3846 25.4228 12.918 24.1983 12.918 22.5022C12.918 20.9129 13.3392 19.6942 14.1817 18.8462C14.6125 18.4208 15.1259 18.0884 15.6903 17.8696C16.2547 17.6507 16.858 17.55 17.4628 17.5737C18.2048 17.5623 18.9407 17.7091 19.6215 18.0043ZM16.0328 20.0766C15.6734 20.4695 15.4494 20.9672 15.3935 21.4967H19.5261C19.5239 21.2242 19.466 20.9552 19.3561 20.7059C19.2462 20.4566 19.0865 20.2324 18.8869 20.0469C18.4901 19.7118 17.9833 19.5355 17.4642 19.552C17.2022 19.536 16.9398 19.5744 16.6934 19.6647C16.447 19.755 16.2219 19.8954 16.0324 20.0769L16.0328 20.0766Z" fill="white"/>
<path d="M30.5997 18.8029C31.348 19.5941 31.7222 20.7558 31.7222 22.288C31.7222 23.9039 31.3565 25.1356 30.625 25.983C30.2802 26.394 29.847 26.7217 29.3577 26.9418C28.8685 27.1619 28.3358 27.2687 27.7995 27.2541C27.1458 27.2787 26.5024 27.0863 25.9695 26.7068C25.662 26.458 25.3985 26.1592 25.19 25.823V30.3652H22.8164V17.8181H25.1143V19.1735C25.3378 18.816 25.6182 18.4975 25.9445 18.2307C26.4954 17.8162 27.17 17.5997 27.8592 17.6161C28.374 17.6082 28.8847 17.7099 29.3572 17.9145C29.8297 18.1192 30.2532 18.422 30.5997 18.8029ZM28.7587 20.5286C28.5953 20.2595 28.3607 20.0408 28.0808 19.8967C27.8009 19.7526 27.4866 19.6887 27.1726 19.7121C26.7767 19.6905 26.3846 19.8001 26.0572 20.0238C25.7298 20.2475 25.4852 20.5728 25.3613 20.9495C25.1753 21.4848 25.0888 22.0495 25.106 22.6159C25.106 23.6824 25.3921 24.4316 25.9642 24.8635C26.3142 25.1191 26.7387 25.2521 27.172 25.2421C27.4742 25.257 27.7752 25.1935 28.0457 25.0578C28.3162 24.9221 28.547 24.7188 28.7157 24.4676C29.0569 23.8687 29.2399 23.1927 29.2474 22.5034C29.2548 21.8142 29.0865 21.1344 28.7584 20.5283L28.7587 20.5286Z" fill="white"/>
<path d="M34.6048 24.0647C34.6181 24.3947 34.7333 24.7125 34.9347 24.9743C35.2336 25.294 35.7861 25.4538 36.5924 25.4538C36.9799 25.471 37.3662 25.3991 37.7216 25.2435C37.8391 25.1913 37.9401 25.108 38.0136 25.0026C38.0872 24.8971 38.1305 24.7735 38.1389 24.6452C38.1472 24.5169 38.1204 24.3888 38.0611 24.2746C38.0019 24.1605 37.9126 24.0648 37.8029 23.9977C37.578 23.8576 36.7415 23.6163 35.2933 23.2739C34.2506 23.0157 33.5161 22.6935 33.0897 22.3074C32.8694 22.0955 32.6979 21.8381 32.5874 21.5531C32.4769 21.2681 32.4299 20.9624 32.4498 20.6573C32.448 20.2425 32.5365 19.8323 32.7091 19.4551C32.8818 19.0779 33.1345 18.7428 33.4496 18.4731C34.1162 17.8643 35.054 17.5598 36.2631 17.5595C37.2438 17.517 38.2163 17.7544 39.067 18.2441C39.7895 18.7016 40.2043 19.4914 40.3114 20.6137H37.9119C37.8948 20.3497 37.8042 20.0957 37.6502 19.8805C37.3856 19.5552 36.9355 19.3924 36.2998 19.3922C35.9109 19.3595 35.5212 19.4447 35.1813 19.6365C35.083 19.6972 35.0011 19.7812 34.943 19.8811C34.8848 19.9809 34.8522 20.0936 34.8481 20.2091C34.8415 20.3326 34.8717 20.4552 34.9348 20.5616C34.9979 20.6679 35.0911 20.7532 35.2027 20.8066C36.0174 21.0985 36.8553 21.3209 37.7076 21.4715C38.5009 21.6167 39.242 21.968 39.8565 22.4904C40.0877 22.7131 40.27 22.9815 40.3918 23.2786C40.5135 23.5756 40.5721 23.8948 40.5637 24.2157C40.575 24.6398 40.4893 25.0608 40.3131 25.4466C40.1369 25.8325 39.875 26.1731 39.5472 26.4423C38.8696 27.0173 37.8223 27.3049 36.4054 27.3052C34.9613 27.3052 33.8948 27.0007 33.206 26.3917C32.8718 26.1048 32.6056 25.747 32.4269 25.3444C32.2482 24.9418 32.1614 24.5044 32.1729 24.0641L34.6048 24.0647Z" fill="white"/>
<path d="M41.5156 17.8184H43.9485V26.9934H41.5156V17.8184Z" fill="white"/>
<path d="M11.8529 34.8981C12.5716 35.8691 12.9352 37.0573 12.8827 38.2642C12.9314 39.5236 12.5756 40.7655 11.8672 41.8079C11.3274 42.4938 10.5617 42.9659 9.70638 43.1401C8.85109 43.3143 7.96173 43.1793 7.19667 42.7591C6.84373 42.501 6.53997 42.1817 6.29984 41.8163V42.9694H3.93359V30.4199H6.33316V34.9908C6.60016 34.6008 6.94305 34.2687 7.34132 34.0143C7.84245 33.7161 8.41939 33.5699 9.00204 33.5934C9.54674 33.5685 10.0895 33.6739 10.5853 33.9008C11.0811 34.1277 11.5157 34.4696 11.8529 34.8981ZM9.84755 40.4875C10.2174 39.8993 10.3982 39.2119 10.3654 38.5178C10.3822 37.9679 10.2959 37.4196 10.1108 36.9014C9.98819 36.5316 9.74716 36.2125 9.425 35.9934C9.10283 35.7744 8.71746 35.6675 8.32847 35.6893C7.93925 35.6646 7.55253 35.7669 7.22651 35.981C6.90049 36.195 6.65284 36.5091 6.52081 36.8761C6.33402 37.3996 6.24762 37.9537 6.26617 38.5092C6.23943 39.1984 6.42298 39.8794 6.79243 40.4618C6.97005 40.7186 7.21118 40.9249 7.49231 41.0606C7.77344 41.1963 8.08496 41.2569 8.39647 41.2364C8.68238 41.2469 8.96615 41.1835 9.2204 41.0523C9.47465 40.9211 9.69045 40.7266 9.84755 40.4875Z" fill="white"/>
<path d="M16.2756 33.7949V39.3256C16.2548 39.7269 16.3174 40.1282 16.4595 40.5041C16.6773 40.9707 17.1044 41.2039 17.741 41.2039C18.089 41.2338 18.4376 41.154 18.738 40.9759C19.0384 40.7977 19.2756 40.5301 19.4163 40.2105C19.5888 39.7568 19.6681 39.273 19.6496 38.788V33.7949H22.0825V42.9703H19.7496V41.6739C19.7274 41.7019 19.6718 41.7861 19.583 41.9265C19.4953 42.0648 19.3879 42.1896 19.264 42.2968C18.95 42.5954 18.5807 42.8299 18.1769 42.987C17.7805 43.1177 17.3648 43.1803 16.9474 43.1723C15.5921 43.1723 14.6799 42.684 14.2109 41.7075C13.9082 40.9516 13.7736 40.1388 13.8163 39.3256V33.7949H16.2756Z" fill="white"/>
<path d="M28.7002 33.5809C28.7312 33.5839 28.8002 33.5882 28.9065 33.5935V36.0518C28.755 36.0349 28.6204 36.0238 28.5026 36.0184C28.3849 36.0128 28.2893 36.0098 28.2163 36.0098C27.2509 36.0098 26.6027 36.324 26.2716 36.9526C26.0557 37.4686 25.9607 38.0272 25.994 38.5856V42.9712H23.5781V33.7955H25.8674V35.3952C26.1219 34.9292 26.4481 34.506 26.8339 34.1411C27.3308 33.7488 27.9524 33.5485 28.5849 33.5769C28.6319 33.5765 28.6695 33.5782 28.7002 33.5809Z" fill="white"/>
<path d="M43.8402 33.9416C44.2713 34.185 44.6334 34.5342 44.8923 34.9561V30.4199H47.3253V42.9704H44.9923V41.6993C44.7073 42.1862 44.3051 42.5942 43.8222 42.8861C43.319 43.1485 42.7564 43.2761 42.1892 43.2563C41.6688 43.2605 41.1544 43.1456 40.6853 42.9203C40.2162 42.695 39.805 42.3653 39.483 41.9566C38.7241 41.0139 38.3333 39.8279 38.3831 38.6188C38.3831 37.0533 38.7437 35.8216 39.4649 34.9238C39.8066 34.487 40.2467 34.1371 40.7493 33.9027C41.252 33.6683 41.8028 33.5561 42.3571 33.575C42.875 33.5655 43.3864 33.6919 43.8402 33.9416ZM44.4291 40.4778C44.8048 39.8949 44.9901 39.2097 44.9593 38.5168C44.9593 37.3946 44.6759 36.5922 44.1091 36.1096C43.7715 35.8216 43.3407 35.6661 42.897 35.672C42.5916 35.6518 42.2865 35.7152 42.0144 35.8553C41.7423 35.9955 41.5135 36.2071 41.3526 36.4675C41.0278 37.0856 40.8588 37.7736 40.8602 38.4719C40.8617 39.1701 41.0336 39.8574 41.361 40.4742C41.5247 40.7237 41.7514 40.9256 42.0182 41.0594C42.285 41.1932 42.5824 41.2541 42.8804 41.236C43.1816 41.2522 43.482 41.1911 43.7531 41.0586C44.0241 40.9261 44.2568 40.7265 44.4291 40.4788V40.4778Z" fill="white"/>
<path d="M35.1948 42.9778C35.1948 42.9778 35.2118 42.1113 35.1948 41.904C34.8595 42.2648 34.4722 42.5735 34.0457 42.8199C33.5096 43.1211 32.9031 43.2746 32.2883 43.2648C31.5353 43.2931 30.7987 43.04 30.222 42.5549C29.9451 42.3014 29.7281 41.9893 29.5871 41.6414C29.4461 41.2934 29.3845 40.9184 29.4068 40.5436C29.4068 39.418 29.844 38.6033 30.7183 38.0994C31.38 37.7718 32.0977 37.5723 32.8335 37.5115L33.6544 37.4115C33.9809 37.3833 34.3023 37.3127 34.6106 37.2015C34.7579 37.158 34.8875 37.0686 34.9804 36.9462C35.0732 36.8238 35.1246 36.6749 35.1268 36.5213C35.1426 36.3674 35.1136 36.2122 35.0433 36.0744C34.9731 35.9365 34.8646 35.8219 34.7309 35.7441C34.3663 35.581 33.9679 35.5076 33.5691 35.5302C33.3478 35.5071 33.124 35.5327 32.9137 35.6053C32.7033 35.6778 32.5114 35.7955 32.3513 35.9501C32.1654 36.1949 32.0478 36.4848 32.0107 36.7899H29.7008C29.72 36.0787 29.9553 35.3901 30.3756 34.816C31.0111 34.0099 32.1021 33.6067 33.6487 33.6065C34.5776 33.5891 35.4972 33.7935 36.3312 34.2027C37.1129 34.6007 37.5037 35.351 37.5037 36.4537V40.6529C37.5037 40.9442 37.5094 42.5636 37.5207 42.9782L35.1948 42.9778ZM35.1191 38.5276C34.9724 38.6194 34.817 38.6967 34.6552 38.7583C34.4459 38.8309 34.2308 38.8857 34.0123 38.9222L33.4675 39.0222C33.0856 39.0717 32.7142 39.1824 32.3676 39.3501C32.187 39.449 32.038 39.5969 31.9378 39.7767C31.8375 39.9565 31.7902 40.161 31.8011 40.3666C31.7858 40.5311 31.809 40.6968 31.869 40.8506C31.929 41.0045 32.0241 41.1422 32.1467 41.2528C32.3868 41.4382 32.6837 41.5347 32.9869 41.5258C33.504 41.5277 34.0091 41.3693 34.4326 41.0725C34.8732 40.7699 35.1019 40.2183 35.1188 39.4178L35.1191 38.5276Z" fill="white"/>
<path d="M54.2104 42.9778C54.2104 42.9778 54.2274 42.1113 54.2104 41.904C53.875 42.2648 53.4877 42.5735 53.0613 42.8199C52.5252 43.1211 51.9188 43.2746 51.3039 43.2648C50.5508 43.2933 49.8141 43.0402 49.2376 42.5549C48.9606 42.3014 48.7438 41.9893 48.6028 41.6414C48.4617 41.2934 48.4001 40.9184 48.4224 40.5436C48.4224 39.418 48.8595 38.6033 49.7338 38.0994C50.3956 37.7718 51.1133 37.5724 51.8491 37.5115L52.67 37.4115C52.9965 37.3833 53.3179 37.3128 53.6262 37.2015C53.7735 37.158 53.9031 37.0686 53.996 36.9462C54.0889 36.8238 54.1402 36.6749 54.1424 36.5213C54.1582 36.3674 54.1292 36.2122 54.059 36.0744C53.9887 35.9365 53.8802 35.8219 53.7465 35.7441C53.3819 35.581 52.9835 35.5076 52.5847 35.5302C52.3634 35.5071 52.1397 35.5327 51.9293 35.6053C51.7189 35.6778 51.527 35.7955 51.3669 35.9501C51.181 36.1949 51.0634 36.4848 51.0263 36.7899H48.7164C48.7356 36.0787 48.971 35.3901 49.3912 34.816C50.0267 34.0099 51.1177 33.6067 52.6644 33.6065C53.5932 33.589 54.5128 33.7934 55.3469 34.2027C56.1285 34.6007 56.5193 35.351 56.5193 36.4537V40.6529C56.5193 40.9442 56.525 42.5636 56.5363 42.9782L54.2104 42.9778ZM54.1348 38.5276C53.988 38.6194 53.8326 38.6967 53.6708 38.7583C53.4615 38.8309 53.2465 38.8857 53.0279 38.9222L52.483 39.0222C52.1012 39.0717 51.7298 39.1824 51.3832 39.3501C51.2026 39.449 51.0536 39.5969 50.9534 39.7767C50.8532 39.9565 50.8057 40.161 50.8167 40.3666C50.8013 40.5311 50.8246 40.6968 50.8846 40.8506C50.9446 41.0045 51.0397 41.1422 51.1623 41.2528C51.4023 41.4382 51.6992 41.5347 52.0024 41.5258C52.5196 41.5277 53.0247 41.3693 53.4482 41.0725C53.8888 40.7699 54.1175 40.2183 54.1344 39.4178L54.1348 38.5276Z" fill="white"/>
<path d="M42.6922 17.0641C43.4218 17.0641 44.0133 16.4726 44.0133 15.743C44.0133 15.0134 43.4218 14.4219 42.6922 14.4219C41.9626 14.4219 41.3711 15.0134 41.3711 15.743C41.3711 16.4726 41.9626 17.0641 42.6922 17.0641Z" fill="white"/>
</svg>
