<svg width="59" height="59" viewBox="0 0 59 59" fill="none" xmlns="http://www.w3.org/2000/svg">
<rect x="0.612499" y="58.3875" width="57.775" height="57.775" rx="14.0875" transform="rotate(-90 0.612499 58.3875)" fill="#F4F7FE" stroke="#E8EEFF" stroke-width="1.225"/>
<path d="M25.9581 19.2016C24.5808 19.9863 23.4437 21.1234 22.6589 22.5007C21.8422 23.894 21.4258 25.4635 21.4419 27.081C21.4258 28.6825 21.8582 30.252 22.6589 31.6453C23.4437 33.0226 24.5808 34.1597 25.9581 34.9444C27.3515 35.7612 28.9209 36.1776 30.5384 36.1616C32.1399 36.1776 33.7255 35.7452 35.1188 34.9444C36.4961 34.1597 37.6331 33.0226 38.4179 31.6453C39.2186 30.268 39.635 28.6825 39.619 27.081C39.635 25.4795 39.2186 23.894 38.4179 22.5007C37.6331 21.1234 36.4961 19.9863 35.1188 19.2016C33.7255 18.4008 32.1559 17.9844 30.5384 18.0004C28.9209 17.9844 27.3354 18.4008 25.9581 19.2016ZM34.5742 22.9811C35.6152 24.0862 36.1918 25.5596 36.1598 27.081C36.1918 28.6024 35.6153 30.0598 34.5583 31.1488C33.5333 32.2539 32.0759 32.8625 30.5705 32.8144C29.049 32.8464 27.5917 32.2379 26.5507 31.1488C25.4617 30.0758 24.869 28.6024 24.901 27.081C24.869 25.5596 25.4616 24.0862 26.5346 23.0132C27.5916 21.9081 29.049 21.3156 30.5705 21.3476C32.0759 21.2996 33.5172 21.8921 34.5742 22.9811Z" fill="#F219AF"/>
<path d="M18 42.984H21.4913V33.6632C22.8686 35.3288 24.9186 36.2576 27.0806 36.1936C28.6821 36.1936 30.2676 35.7772 31.6449 34.9764C33.0222 34.1917 34.1593 33.0386 34.96 31.6613C35.7768 30.284 36.1931 28.6985 36.1771 27.097C36.1931 25.4955 35.7608 23.91 34.96 22.5167C34.1753 21.1394 33.0222 20.0023 31.6449 19.2016C30.2516 18.4008 28.6821 17.9844 27.0806 18.0004C22.0679 18.0004 18 22.0683 18 27.081C18 27.081 18 27.081 18 27.097V42.984ZM27.0806 32.8464C25.5592 32.8785 24.1017 32.2699 23.0607 31.1809C21.9877 30.0918 21.3953 28.6185 21.4273 27.097C21.3953 25.5756 21.9877 24.1022 23.0607 23.0132C24.1017 21.9081 25.5592 21.2996 27.0806 21.3476C28.602 21.3156 30.0594 21.9081 31.1164 22.9972C32.1734 24.1022 32.75 25.5756 32.7179 27.097C32.75 28.6185 32.1733 30.0918 31.1003 31.1809C30.0593 32.2699 28.602 32.8785 27.0806 32.8464Z" fill="#0136F4"/>
<path d="M24.8889 26.9208H21.4297C21.4777 21.9402 25.5455 17.9524 30.5262 18.0004C35.4909 17.9524 39.5588 21.9562 39.6068 26.9208H36.2436C36.2116 25.4475 35.603 24.0381 34.578 22.9811C33.537 21.8921 32.0797 21.2995 30.5742 21.3316C29.0528 21.2995 27.5794 21.9081 26.5384 22.9972C25.4974 24.0381 24.9049 25.4475 24.8889 26.9208Z" fill="#F219AF"/>
</svg>
