<svg width="22" height="22" viewBox="0 0 22 22" fill="none" xmlns="http://www.w3.org/2000/svg">
<path d="M14.1249 0.989321C13.9357 0.896815 13.7243 0.859282 13.5148 0.880994C13.3053 0.902706 13.1061 0.982791 12.9399 1.11213L6.49461 6.12495H2.38086C1.88358 6.12495 1.40666 6.32249 1.05503 6.67412C0.703403 7.02575 0.505859 7.50266 0.505859 7.99995V13.9999C0.505859 14.4972 0.703403 14.9741 1.05503 15.3258C1.40666 15.6774 1.88358 15.8749 2.38086 15.8749H6.49461L12.9399 20.8878C13.1061 21.0171 13.3053 21.0972 13.5149 21.1189C13.7244 21.1407 13.9358 21.1031 14.125 21.0106C14.3142 20.9181 14.4737 20.7743 14.5852 20.5956C14.6967 20.417 14.7559 20.2106 14.7559 19.9999V1.99995C14.7558 1.78932 14.6967 1.58292 14.5852 1.40426C14.4736 1.22559 14.3142 1.08182 14.1249 0.989321ZM12.5059 17.7003L7.5718 13.8621C7.37428 13.7084 7.13114 13.6249 6.88086 13.6249H2.75586V8.37495H6.88086C7.13114 8.37494 7.37428 8.29148 7.5718 8.13776L12.5059 4.30057V17.7003ZM18.5059 8.74995V13.2499C18.5059 13.5483 18.3873 13.8345 18.1764 14.0454C17.9654 14.2564 17.6792 14.3749 17.3809 14.3749C17.0825 14.3749 16.7963 14.2564 16.5854 14.0454C16.3744 13.8345 16.2559 13.5483 16.2559 13.2499V8.74995C16.2559 8.45158 16.3744 8.16543 16.5854 7.95445C16.7963 7.74347 17.0825 7.62495 17.3809 7.62495C17.6792 7.62495 17.9654 7.74347 18.1764 7.95445C18.3873 8.16543 18.5059 8.45158 18.5059 8.74995ZM21.8809 7.24995V14.7499C21.8809 15.0483 21.7623 15.3345 21.5514 15.5454C21.3404 15.7564 21.0542 15.8749 20.7559 15.8749C20.4575 15.8749 20.1713 15.7564 19.9604 15.5454C19.7494 15.3345 19.6309 15.0483 19.6309 14.7499V7.24995C19.6309 6.95158 19.7494 6.66543 19.9604 6.45445C20.1713 6.24347 20.4575 6.12495 20.7559 6.12495C21.0542 6.12495 21.3404 6.24347 21.5514 6.45445C21.7623 6.66543 21.8809 6.95158 21.8809 7.24995Z" fill="#023E7D"/>
</svg>
