<svg width="23" height="20" viewBox="0 0 23 20" fill="none" xmlns="http://www.w3.org/2000/svg">
<path d="M22.4852 11.6747L21.3602 2.67469C21.2809 2.03983 20.9725 1.45579 20.493 1.03232C20.0134 0.608843 19.3956 0.375095 18.7559 0.375H2.63086C2.13358 0.375 1.65666 0.572544 1.30503 0.924175C0.953403 1.27581 0.755859 1.75272 0.755859 2.25V10.5C0.755859 10.7462 0.804358 10.99 0.898585 11.2175C0.992813 11.445 1.13092 11.6517 1.30503 11.8258C1.47914 11.9999 1.68584 12.138 1.91333 12.2323C2.14081 12.3265 2.38463 12.375 2.63086 12.375H6.43523L9.87492 19.2534C9.96838 19.4402 10.112 19.5973 10.2896 19.707C10.4673 19.8168 10.672 19.875 10.8809 19.875C11.9745 19.8738 13.023 19.4388 13.7963 18.6654C14.5696 17.8921 15.0046 16.8436 15.0059 15.75V14.625H19.8809C20.253 14.6249 20.6209 14.5458 20.9601 14.3927C21.2993 14.2396 21.6021 14.0162 21.8484 13.7372C22.0947 13.4582 22.2788 13.13 22.3886 12.7744C22.4984 12.4188 22.5314 12.044 22.4852 11.6747ZM6.00586 10.125H3.00586V2.625H6.00586V10.125ZM20.1621 12.2484C20.1269 12.2883 20.0836 12.3202 20.0351 12.342C19.9866 12.3638 19.934 12.375 19.8809 12.375H13.8809C13.5825 12.375 13.2963 12.4935 13.0854 12.7045C12.8744 12.9155 12.7559 13.2016 12.7559 13.5V15.75C12.7558 16.1351 12.6372 16.5109 12.4162 16.8262C12.1951 17.1416 11.8823 17.3812 11.5202 17.5125L8.25586 10.9847V2.625H18.7559C18.8477 2.62428 18.9366 2.65729 19.0057 2.71777C19.0749 2.77825 19.1194 2.862 19.1309 2.95312L20.2559 11.9531C20.2622 12.0062 20.2571 12.06 20.2409 12.1109C20.2247 12.1618 20.1979 12.2087 20.1621 12.2484Z" fill="#023E7D"/>
</svg>
