<svg width="23" height="20" viewBox="0 0 23 20" fill="none" xmlns="http://www.w3.org/2000/svg">
<path d="M22.4852 8.32531L21.3602 17.3253C21.2809 17.9602 20.9725 18.5442 20.493 18.9677C20.0134 19.3912 19.3956 19.6249 18.7559 19.625H2.63086C2.13358 19.625 1.65666 19.4275 1.30503 19.0758C0.953403 18.7242 0.755859 18.2473 0.755859 17.75V9.5C0.755859 9.25377 0.804358 9.00995 0.898585 8.78247C0.992813 8.55498 1.13092 8.34828 1.30503 8.17418C1.47914 8.00006 1.68584 7.86195 1.91333 7.76773C2.14081 7.6735 2.38463 7.625 2.63086 7.625H6.43523L9.87492 0.746563C9.96838 0.559799 10.112 0.402735 10.2896 0.292957C10.4673 0.183182 10.672 0.125025 10.8809 0.125C11.9745 0.12624 13.023 0.561235 13.7963 1.33455C14.5696 2.10787 15.0046 3.15636 15.0059 4.25V5.375H19.8809C20.253 5.37506 20.6209 5.45424 20.9601 5.6073C21.2993 5.76037 21.6021 5.98381 21.8484 6.26281C22.0947 6.54181 22.2788 6.86999 22.3886 7.22557C22.4984 7.58116 22.5314 7.95603 22.4852 8.32531ZM6.00586 9.875H3.00586V17.375H6.00586V9.875ZM20.1621 7.75156C20.1269 7.71173 20.0836 7.67985 20.0351 7.65803C19.9866 7.63621 19.934 7.62495 19.8809 7.625H13.8809C13.5825 7.625 13.2963 7.50647 13.0854 7.29549C12.8744 7.08452 12.7559 6.79837 12.7559 6.5V4.25C12.7558 3.86489 12.6372 3.48912 12.4162 3.17378C12.1951 2.85844 11.8823 2.61882 11.5202 2.4875L8.25586 9.01531V17.375H18.7559C18.8477 17.3757 18.9366 17.3427 19.0057 17.2822C19.0749 17.2217 19.1194 17.138 19.1309 17.0469L20.2559 8.04688C20.2622 7.99381 20.2571 7.94001 20.2409 7.88908C20.2247 7.83815 20.1979 7.79127 20.1621 7.75156Z" fill="#023E7D"/>
</svg>
