<svg width="15" height="14" viewBox="0 0 15 14" fill="none" xmlns="http://www.w3.org/2000/svg">
<path d="M5.72763 13.4084C6.05398 13.4084 6.31854 13.1438 6.31854 12.8175C6.31854 12.4911 6.05398 12.2266 5.72763 12.2266C5.40128 12.2266 5.13672 12.4911 5.13672 12.8175C5.13672 13.1438 5.40128 13.4084 5.72763 13.4084Z" stroke="#747C98" stroke-width="1.18182" stroke-linecap="round" stroke-linejoin="round"/>
<path d="M12.2276 13.4084C12.554 13.4084 12.8185 13.1438 12.8185 12.8175C12.8185 12.4911 12.554 12.2266 12.2276 12.2266C11.9013 12.2266 11.6367 12.4911 11.6367 12.8175C11.6367 13.1438 11.9013 13.4084 12.2276 13.4084Z" stroke="#747C98" stroke-width="1.18182" stroke-linecap="round" stroke-linejoin="round"/>
<path d="M1 1H3.36364L4.94727 8.91227C5.00131 9.18432 5.14931 9.4287 5.36537 9.60263C5.58143 9.77656 5.85178 9.86895 6.12909 9.86364H11.8727C12.15 9.86895 12.4204 9.77656 12.6365 9.60263C12.8525 9.4287 13.0005 9.18432 13.0545 8.91227L14 3.95455H3.95455" stroke="#747C98" stroke-width="1.18182" stroke-linecap="round" stroke-linejoin="round"/>
</svg>
