<svg width="14" height="13" viewBox="0 0 14 13" fill="none" xmlns="http://www.w3.org/2000/svg">
<path d="M6.87012 0.448245C8.18194 0.263727 9.51833 0.510523 10.6777 1.15137C11.8372 1.79231 12.7573 2.79291 13.2988 4.00196C13.8403 5.21118 13.9737 6.56455 13.6797 7.85645C13.3856 9.1481 12.6802 10.3093 11.6689 11.165C10.6575 12.0209 9.395 12.5245 8.07227 12.6006C6.7496 12.6767 5.43784 12.321 4.33496 11.5869C3.23216 10.8528 2.39726 9.77981 1.95703 8.53028C1.84525 8.21209 2.0129 7.86307 2.33105 7.75098C2.60956 7.65302 2.91141 7.76899 3.05762 8.0127L3.11035 8.125L3.17969 8.31055C3.54648 9.23067 4.18553 10.0188 5.0127 10.5693C5.89495 11.1566 6.94387 11.4417 8.00195 11.3809C9.05996 11.32 10.0698 10.9169 10.8789 10.2324C11.688 9.54779 12.2531 8.61841 12.4883 7.58496C12.7235 6.55149 12.6167 5.4693 12.1836 4.50196C11.7505 3.5347 11.0144 2.7345 10.0869 2.22168C9.15928 1.70888 8.08964 1.51151 7.04004 1.65918C5.9906 1.80688 5.01763 2.29134 4.26758 3.04004C4.26324 3.04438 4.25838 3.04853 4.25391 3.05274L2.54297 4.66114H4.66699L4.79004 4.67383C5.06836 4.73093 5.27734 4.97725 5.27734 5.27246C5.27713 5.56753 5.06829 5.81408 4.79004 5.8711L4.66699 5.88282H1C0.997715 5.88282 0.995443 5.88186 0.993164 5.88184C0.960984 5.88144 0.929241 5.87751 0.897461 5.87207C0.889673 5.87076 0.881709 5.87075 0.874023 5.86914C0.84771 5.86359 0.82239 5.85473 0.796875 5.84571C0.783514 5.84099 0.769753 5.83764 0.756836 5.83203C0.741629 5.82543 0.727617 5.81648 0.712891 5.8086C0.69219 5.79752 0.671533 5.78674 0.652344 5.77344C0.635719 5.76189 0.621107 5.74776 0.605469 5.73438C0.591016 5.72206 0.575743 5.71086 0.5625 5.69727C0.560102 5.6948 0.557053 5.69295 0.554688 5.69043C0.544258 5.67933 0.536784 5.66595 0.527344 5.6543C0.513002 5.63663 0.497677 5.61981 0.485352 5.60059C0.476487 5.58674 0.469545 5.57198 0.461914 5.55762C0.450899 5.53695 0.440261 5.51614 0.431641 5.49414C0.4244 5.4756 0.419418 5.45652 0.414062 5.4375C0.408782 5.4188 0.40291 5.40025 0.399414 5.38086C0.395736 5.36047 0.394172 5.33993 0.392578 5.31934C0.391384 5.30382 0.388683 5.28829 0.388672 5.27246V1.60547C0.388672 1.26796 0.662493 0.994143 1 0.994143C1.33751 0.994143 1.61133 1.26796 1.61133 1.60547V3.8584L3.41699 2.16211C4.35286 1.23348 5.56424 0.631975 6.87012 0.448245Z" fill="#747C98"/>
</svg>
