<svg width="25" height="20" viewBox="0 0 25 20" fill="none" xmlns="http://www.w3.org/2000/svg">
<path d="M23.623 9.02832C24.1734 9.65552 24.1734 10.5945 23.623 11.2217L16.8643 18.9229C16.2217 19.655 15.0835 19.6601 14.4346 18.9336C13.8885 18.3221 13.8843 17.3995 14.4248 16.7832L18.7734 11.8281L2.38574 11.8281C1.46808 11.828 0.723819 11.0837 0.723632 10.166L0.723632 10.084C0.723819 9.16633 1.46808 8.42201 2.38574 8.42187L18.7734 8.42187L14.4248 3.4668C13.8843 2.85045 13.8885 1.92789 14.4346 1.31641C15.0835 0.589907 16.2217 0.594977 16.8643 1.32715L23.623 9.02832Z" fill="white" stroke="white" stroke-width="1.06159"/>
</svg>
