<svg width="148" height="42" viewBox="0 0 148 42" fill="none" xmlns="http://www.w3.org/2000/svg">
<path d="M144.678 26.6798L147.27 29.2284C145.283 30.8412 143.007 31.6475 140.444 31.6475C137.248 31.6475 134.685 30.6252 132.755 28.5805C130.826 26.507 129.861 23.9295 129.861 20.8481C129.861 17.8242 130.869 15.2756 132.885 13.2021C134.929 11.0998 137.449 10.0486 140.444 10.0486C143.007 10.0486 145.283 10.855 147.27 12.4677L144.721 15.0596C143.511 14.138 142.086 13.6772 140.444 13.6772C138.457 13.6772 136.873 14.3396 135.693 15.6643C134.541 16.9603 133.965 18.6882 133.965 20.8481C133.965 23.008 134.541 24.7503 135.693 26.075C136.873 27.3709 138.457 28.0189 140.444 28.0189C142.115 28.0189 143.526 27.5725 144.678 26.6798Z" fill="#023E7D"/>
<path d="M110.71 10.4805H118.183C121.38 10.4805 123.669 10.9557 125.051 11.906C126.29 12.7412 127.067 13.7491 127.384 14.9299C127.73 16.0818 127.902 17.6081 127.902 19.5088V31.2154H124.101V19.552C124.101 19.0336 124.087 18.6017 124.058 18.2561C124.029 17.8817 123.928 17.4209 123.755 16.8738C123.583 16.2978 123.338 15.837 123.021 15.4914C122.704 15.117 122.243 14.8003 121.639 14.5411C121.034 14.2531 120.3 14.1091 119.436 14.1091H114.511V31.2154H110.71V10.4805Z" fill="#023E7D"/>
<path d="M90.9173 10.4805H94.7187V21.3231C94.7187 23.6558 95.0787 25.2829 95.7986 26.2045C96.5186 27.126 97.8433 27.5868 99.7728 27.5868H104.309V10.4805H108.11V30.1787C108.11 33.7785 107.16 36.4855 105.259 38.2998C103.387 40.143 100.435 41.0645 96.4034 41.0645H93.2932V37.4359H96.0146C101.285 37.4359 104.049 35.3624 104.309 31.2154H100.68C96.9074 31.2154 94.3299 30.553 92.9476 29.2283C91.5941 27.9036 90.9173 25.2109 90.9173 21.1503V10.4805Z" fill="#023E7D"/>
<path d="M88.968 10.4805V14.1091H81.322C80.4868 14.1091 79.7669 14.2675 79.1621 14.5843C78.5573 14.9011 78.2549 15.3474 78.2549 15.9234C78.2549 16.269 78.3269 16.5858 78.4709 16.8738C78.6149 17.1329 78.7733 17.3489 78.9461 17.5217C79.1477 17.6945 79.4357 17.8817 79.8101 18.0833C80.2132 18.2561 80.5156 18.3857 80.7172 18.4721C80.9476 18.5297 81.8692 18.8177 83.4819 19.336C85.0946 19.8544 86.2897 20.2864 87.0673 20.632C87.8449 20.9775 88.4352 21.4527 88.8384 22.0575C89.2704 22.6335 89.544 23.2094 89.6592 23.7854C89.7744 24.3326 89.8319 24.8797 89.8319 25.4269C89.8319 29.2859 87.1825 31.2154 81.8836 31.2154H74.4103V27.5868H81.8836C84.5906 27.5868 85.9441 26.8668 85.9441 25.4269C85.9441 24.7357 85.541 24.1598 84.7346 23.699C83.957 23.2382 82.9923 22.8494 81.8404 22.5327C80.7172 22.2159 79.5797 21.8559 78.4277 21.4527C77.3046 21.0207 76.3398 20.344 75.5335 19.4224C74.7559 18.4721 74.3671 17.3057 74.3671 15.9234C74.3671 14.1667 75.0439 12.8276 76.3974 11.906C77.751 10.9557 79.3925 10.4805 81.322 10.4805H88.968Z" fill="#023E7D"/>
<path d="M66.9907 19.0336V22.9214C65.8964 22.0863 64.5572 21.6687 62.9733 21.6687C61.6198 21.6687 60.5687 21.9423 59.8199 22.4895C59.0711 23.0078 58.6968 23.7566 58.6968 24.7357C58.6968 26.6365 60.1079 27.5868 62.9301 27.5868H68.6322V19.336C68.6322 15.8514 66.9331 14.1091 63.5349 14.1091H56.6233V10.4805H63.7509C66.5443 10.4805 68.6898 11.1716 70.1874 12.554C71.6849 13.9363 72.4336 15.9234 72.4336 18.5153V31.2154H62.8005C60.3527 31.2154 58.4088 30.6682 56.9688 29.5739C55.5289 28.4796 54.809 26.8812 54.809 24.7789C54.809 22.6767 55.5721 21.0783 57.0984 19.984C58.6248 18.8897 60.5399 18.3425 62.8437 18.3425C64.1397 18.3425 65.522 18.5729 66.9907 19.0336Z" fill="#023E7D"/>
<path d="M40.3616 14.1094L48.094 6.377V10.4808H53.9257V14.1094H48.094V23.0081C48.094 24.0161 48.2524 24.8512 48.5692 25.5136C48.9148 26.176 49.4044 26.6512 50.0379 26.9391C50.6715 27.1983 51.2619 27.3711 51.809 27.4575C52.385 27.5439 53.0906 27.5871 53.9257 27.5871V31.2157C50.6139 31.2157 48.166 30.5822 46.5821 29.315C44.9982 28.0479 44.2062 25.9456 44.2062 23.0081V14.1094H40.3616Z" fill="#023E7D"/>
<path d="M34.9186 19.0336V22.9214C33.8243 22.0863 32.4851 21.6687 30.9012 21.6687C29.5477 21.6687 28.4965 21.9423 27.7478 22.4895C26.999 23.0078 26.6246 23.7566 26.6246 24.7357C26.6246 26.6365 28.0358 27.5868 30.858 27.5868H36.5601V19.336C36.5601 15.8514 34.861 14.1091 31.4628 14.1091H24.5511V10.4805H31.6788C34.4722 10.4805 36.6177 11.1716 38.1152 12.554C39.6128 13.9363 40.3615 15.9234 40.3615 18.5153V31.2154H30.7284C28.2805 31.2154 26.3366 30.6682 24.8967 29.5739C23.4568 28.4796 22.7368 26.8812 22.7368 24.7789C22.7368 22.6767 23.5 21.0783 25.0263 19.984C26.5526 18.8897 28.4677 18.3425 30.7716 18.3425C32.0676 18.3425 33.4499 18.5729 34.9186 19.0336Z" fill="#023E7D"/>
<path d="M16.9081 0.977109H20.7959V31.2156H10.6444C7.50538 31.2156 4.95671 30.222 2.99841 28.2349C1.04011 26.219 0.0609589 23.6847 0.0609589 20.6321C0.0609589 17.6371 1.06891 15.1316 3.0848 13.1157C5.1295 11.071 7.54858 10.0486 10.342 10.0486C12.1275 10.0486 13.7979 10.4806 15.353 11.3446V15.2324C13.913 14.1956 12.2427 13.6773 10.342 13.6773C8.61412 13.6773 7.1454 14.3252 5.93586 15.6212C4.75512 16.8883 4.16475 18.5586 4.16475 20.6321C4.16475 22.7344 4.72632 24.4191 5.84946 25.6862C7.0014 26.9534 8.59972 27.5869 10.6444 27.5869H16.9081V0.977109Z" fill="#023E7D"/>
</svg>
