<svg width="43" height="43" viewBox="0 0 43 43" fill="none" xmlns="http://www.w3.org/2000/svg">
<path d="M9.71232 14.8751C9.01679 14.1821 9.01679 13.0545 9.71232 12.3615C10.4078 11.6686 11.5397 11.6686 12.2352 12.3615C12.9307 13.0545 12.9307 14.1821 12.2352 14.8751C11.5397 15.568 10.4078 15.568 9.71232 14.8751Z" fill="#023E7D"/>
<path d="M13.0758 33.2325C12.3803 32.5395 12.3803 31.4119 13.0758 30.7189C13.7714 30.026 14.9032 30.026 15.5987 30.7189C16.2942 31.4119 16.2942 32.5395 15.5987 33.2325C14.9032 33.9254 13.7714 33.9254 13.0758 33.2325Z" fill="#023E7D"/>
<path d="M36.6618 18.1687C36.6618 18.1687 37.8243 14.1699 38.3415 10.6438C38.6808 8.31897 38.247 6.63933 36.2002 5.00976C34.1534 3.38018 29.9709 4.22 27.8296 5.42688C25.6882 6.63377 10.1094 14.448 10.1094 14.448C10.1094 14.448 22.2454 4.16994 26.6671 1.70611C31.0888 -0.757723 35.3159 -0.38509 38.4305 1.7506C41.5452 3.89186 42.7076 8.11874 41.7343 12.8184C40.7554 17.5124 39.643 21.5614 39.643 21.5614L36.6674 18.1687H36.6618Z" fill="#023E7D"/>
<path d="M18.4389 5.71125C18.4389 5.71125 14.4399 4.54885 10.9137 4.03162C8.58879 3.69235 6.9091 4.12617 5.27946 6.17287C3.64983 8.21958 4.48967 12.402 5.6966 14.5432C6.90353 16.6845 14.718 32.2628 14.718 32.2628C14.718 32.2628 4.43962 20.1272 1.9757 15.7056C-0.488218 11.2896 -0.115572 7.05718 2.02019 3.94263C4.16152 0.828079 8.39412 -0.334317 13.0884 0.644542C17.7826 1.6234 21.8316 2.73574 21.8316 2.73574L18.4389 5.71125Z" fill="#023E7D"/>
<path d="M5.67686 24.0756C5.67686 24.0756 4.51443 28.0744 3.99717 31.6061C3.65789 33.9309 4.09172 35.6105 6.1385 37.2401C8.18527 38.8697 12.3678 38.0298 14.5091 36.823C16.6505 35.6161 32.2293 27.8019 32.2293 27.8019C32.2293 27.8019 20.0933 38.0799 15.6716 40.5437C11.2554 43.0076 7.02284 42.6349 3.90818 40.4992C0.793521 38.358 -0.368914 34.1311 0.604417 29.4315C1.58331 24.7374 2.69569 20.6885 2.69569 20.6885L5.6713 24.0811L5.67686 24.0756Z" fill="#023E7D"/>
<path d="M23.9047 36.5281C23.9047 36.5281 27.9037 37.6905 31.43 38.2077C33.7548 38.547 35.4345 38.1132 37.0641 36.0665C38.6938 34.0198 37.8539 29.8374 36.647 27.6961C35.4401 25.5549 27.6256 9.97656 27.6256 9.97656C27.6256 9.97656 37.904 22.1122 40.3679 26.5337C42.8318 30.9497 42.4592 35.1822 40.3234 38.2967C38.1821 41.4113 33.9551 42.5737 29.2553 41.6004C24.561 40.6215 20.512 39.5092 20.512 39.5092L23.9047 36.5337V36.5281Z" fill="#023E7D"/>
<path d="M26.5514 11.7178C25.8559 11.0249 25.8559 9.89725 26.5514 9.20429C27.247 8.51133 28.3788 8.51133 29.0743 9.20429C29.7698 9.89725 29.7698 11.0249 29.0743 11.7178C28.3788 12.4108 27.247 12.4108 26.5514 11.7178Z" fill="#023E7D"/>
<path d="M30.1127 29.6788C29.4172 28.9858 29.4172 27.8582 30.1127 27.1652C30.8082 26.4723 31.94 26.4723 32.6356 27.1652C33.3311 27.8582 33.3311 28.9858 32.6356 29.6788C31.94 30.3717 30.8082 30.3717 30.1127 29.6788Z" fill="#023E7D"/>
<path d="M21.1228 23.8572C22.6666 23.8572 23.9182 22.6101 23.9182 21.0717C23.9182 19.5333 22.6666 18.2861 21.1228 18.2861C19.5789 18.2861 18.3274 19.5333 18.3274 21.0717C18.3274 22.6101 19.5789 23.8572 21.1228 23.8572Z" fill="#023E7D"/>
</svg>
