<svg width="14" height="15" viewBox="0 0 14 15" fill="none" xmlns="http://www.w3.org/2000/svg">
<path d="M12.522 2.97328H1.62026C1.42312 2.97328 1.23406 3.0516 1.09466 3.19099C0.955265 3.33039 0.876953 3.51945 0.876953 3.71659C0.876953 3.91372 0.955265 4.10279 1.09466 4.24218C1.23406 4.38158 1.42312 4.45989 1.62026 4.45989H1.86802V12.884C1.86802 13.2126 1.99854 13.5277 2.23087 13.76C2.4632 13.9923 2.7783 14.1228 3.10686 14.1228H11.0354C11.364 14.1228 11.6791 13.9923 11.9114 13.76C12.1438 13.5277 12.2743 13.2126 12.2743 12.884V4.45989H12.522C12.7192 4.45989 12.9082 4.38158 13.0476 4.24218C13.187 4.10279 13.2653 3.91372 13.2653 3.71659C13.2653 3.51945 13.187 3.33039 13.0476 3.19099C12.9082 3.0516 12.7192 2.97328 12.522 2.97328ZM10.7877 12.6362H3.35463V4.45989H10.7877V12.6362ZM3.85017 1.23891C3.85017 1.04177 3.92848 0.852711 4.06788 0.713314C4.20727 0.573918 4.39633 0.495605 4.59347 0.495605H9.54883C9.74596 0.495605 9.93503 0.573918 10.0744 0.713314C10.2138 0.852711 10.2921 1.04177 10.2921 1.23891C10.2921 1.43605 10.2138 1.62511 10.0744 1.7645C9.93503 1.9039 9.74596 1.98221 9.54883 1.98221H4.59347C4.39633 1.98221 4.20727 1.9039 4.06788 1.7645C3.92848 1.62511 3.85017 1.43605 3.85017 1.23891Z" fill="#F43F5E"/>
</svg>
