<svg width="20" height="21" viewBox="0 0 20 21" fill="none" xmlns="http://www.w3.org/2000/svg">
<path d="M18.2695 14.2213V6.66571C18.2692 6.33447 18.1818 6.00914 18.016 5.72236C17.8502 5.43558 17.6119 5.19744 17.3251 5.03182L10.714 1.25404C10.4268 1.08825 10.1011 1.00098 9.76953 1.00098C9.43796 1.00098 9.11223 1.08825 8.82509 1.25404L2.21398 5.03182C1.92711 5.19744 1.68885 5.43558 1.52308 5.72236C1.35731 6.00914 1.26987 6.33447 1.26953 6.66571V14.2213C1.26987 14.5525 1.35731 14.8778 1.52308 15.1646C1.68885 15.4514 1.92711 15.6895 2.21398 15.8552L8.82509 19.6329C9.11223 19.7987 9.43796 19.886 9.76953 19.886C10.1011 19.886 10.4268 19.7987 10.714 19.6329L17.3251 15.8552C17.6119 15.6895 17.8502 15.4514 18.016 15.1646C18.1818 14.8778 18.2692 14.5525 18.2695 14.2213Z" stroke="#CBDAFF" stroke-width="1.88889" stroke-linecap="round" stroke-linejoin="round"/>
<path d="M1.52417 5.68359L9.76917 10.453L18.0142 5.68359" stroke="#CBDAFF" stroke-width="1.88889" stroke-linecap="round" stroke-linejoin="round"/>
<path d="M9.76953 19.9634V10.4434" stroke="#CBDAFF" stroke-width="1.88889" stroke-linecap="round" stroke-linejoin="round"/>
</svg>
