<svg width="19" height="22" viewBox="0 0 19 22" fill="none" xmlns="http://www.w3.org/2000/svg">
<path d="M11.2695 1.00098H3.26953C2.7391 1.00098 2.23039 1.21169 1.85532 1.58676C1.48024 1.96184 1.26953 2.47054 1.26953 3.00098V19.001C1.26953 19.5314 1.48024 20.0401 1.85532 20.4152C2.23039 20.7903 2.7391 21.001 3.26953 21.001H15.2695C15.8 21.001 16.3087 20.7903 16.6837 20.4152C17.0588 20.0401 17.2695 19.5314 17.2695 19.001V7.00098L11.2695 1.00098Z" stroke="#CBDAFF" stroke-width="2" stroke-linecap="round" stroke-linejoin="round"/>
<path d="M11.2695 1.00098V7.00098H17.2695" stroke="#CBDAFF" stroke-width="2" stroke-linecap="round" stroke-linejoin="round"/>
<path d="M13.2695 12.001H5.26953" stroke="#CBDAFF" stroke-width="2" stroke-linecap="round" stroke-linejoin="round"/>
<path d="M13.2695 16.001H5.26953" stroke="#CBDAFF" stroke-width="2" stroke-linecap="round" stroke-linejoin="round"/>
<path d="M7.26953 8.00098H6.26953H5.26953" stroke="#CBDAFF" stroke-width="2" stroke-linecap="round" stroke-linejoin="round"/>
</svg>
