<svg width="21" height="22" viewBox="0 0 21 22" fill="none" xmlns="http://www.w3.org/2000/svg">
<path d="M4.26953 1.00098L1.26953 5.00098V19.001C1.26953 19.5314 1.48024 20.0401 1.85532 20.4152C2.23039 20.7903 2.7391 21.001 3.26953 21.001H17.2695C17.8 21.001 18.3087 20.7903 18.6837 20.4152C19.0588 20.0401 19.2695 19.5314 19.2695 19.001V5.00098L16.2695 1.00098H4.26953Z" stroke="#CBDAFF" stroke-width="2" stroke-linecap="round" stroke-linejoin="round"/>
<path d="M1.26953 5.00098H19.2695" stroke="#CBDAFF" stroke-width="2" stroke-linecap="round" stroke-linejoin="round"/>
<path d="M14.2695 9.00098C14.2695 10.0618 13.8481 11.0793 13.098 11.8294C12.3478 12.5795 11.3304 13.001 10.2695 13.001C9.20867 13.001 8.19125 12.5795 7.4411 11.8294C6.69096 11.0793 6.26953 10.0618 6.26953 9.00098" stroke="#CBDAFF" stroke-width="2" stroke-linecap="round" stroke-linejoin="round"/>
</svg>
