<svg width="22" height="22" viewBox="0 0 22 22" fill="none" xmlns="http://www.w3.org/2000/svg">
<path d="M19.9997 13.371C19.8055 13.071 19.5296 12.771 19.1719 12.581C18.8857 12.441 18.7018 12.211 18.5383 11.941C18.0171 11.081 18.3237 9.95098 19.1923 9.44098C20.2143 8.87098 20.5413 7.60098 19.9486 6.61098L19.2639 5.43098C18.6813 4.44098 17.4039 4.09098 16.3922 4.67098C15.4928 5.15098 14.338 4.83098 13.8168 3.98098C13.6533 3.70098 13.5613 3.40098 13.5818 3.10098C13.6124 2.71098 13.4898 2.34098 13.3058 2.04098C12.9277 1.42098 12.243 1.00098 11.4868 1.00098H10.0458C9.29977 1.02098 8.61506 1.42098 8.23693 2.04098C8.04276 2.34098 7.93035 2.71098 7.95078 3.10098C7.97122 3.40098 7.87925 3.70098 7.71573 3.98098C7.19454 4.83098 6.03972 5.15098 5.15062 4.67098C4.12866 4.09098 2.86144 4.44098 2.2687 5.43098L1.58399 6.61098C1.00147 7.60098 1.3285 8.87098 2.34024 9.44098C3.2089 9.95098 3.51549 11.081 3.00451 11.941C2.83078 12.211 2.64683 12.441 2.36068 12.581C2.01321 12.771 1.70663 13.071 1.54311 13.371C1.16499 13.991 1.18543 14.771 1.56355 15.421L2.2687 16.621C2.64683 17.261 3.35198 17.661 4.08779 17.661C4.43525 17.661 4.84403 17.561 5.17106 17.361C5.42655 17.191 5.73314 17.131 6.07038 17.131C7.08212 17.131 7.93035 17.961 7.95078 18.951C7.95078 20.101 8.89099 21.001 10.0765 21.001H11.4663C12.6416 21.001 13.5818 20.101 13.5818 18.951C13.6124 17.961 14.4607 17.131 15.4724 17.131C15.7994 17.131 16.106 17.191 16.3717 17.361C16.6987 17.561 17.0973 17.661 17.455 17.661C18.1806 17.661 18.8857 17.261 19.2639 16.621L19.9792 15.421C20.3471 14.751 20.3778 13.991 19.9997 13.371" stroke="#CBDAFF" stroke-width="2"/>
<path d="M10.7813 13.8307C9.17679 13.8307 7.87891 12.5807 7.87891 11.0107C7.87891 9.44066 9.17679 8.18066 10.7813 8.18066C12.3857 8.18066 13.653 9.44066 13.653 11.0107C13.653 12.5807 12.3857 13.8307 10.7813 13.8307Z" fill="#CBDAFF"/>
</svg>
