<svg width="14" height="14" viewBox="0 0 14 14" fill="none" xmlns="http://www.w3.org/2000/svg">
<path d="M13.2559 3.36905L10.4878 0.601485C10.2554 0.369238 9.9404 0.23877 9.6119 0.23877C9.28341 0.23877 8.96836 0.369238 8.73604 0.601485L1.09736 8.23955C0.981929 8.35427 0.890409 8.49076 0.828102 8.6411C0.765795 8.79145 0.733939 8.95266 0.73438 9.11541V11.8836C0.73438 12.2122 0.8649 12.5273 1.09723 12.7596C1.32955 12.9919 1.64466 13.1224 1.97322 13.1224H12.3795C12.5766 13.1224 12.7657 13.0441 12.9051 12.9047C13.0445 12.7653 13.1228 12.5763 13.1228 12.3791C13.1228 12.182 13.0445 11.9929 12.9051 11.8535C12.7657 11.7141 12.5766 11.6358 12.3795 11.6358H6.74275L13.2559 5.12139C13.371 5.00635 13.4623 4.86976 13.5246 4.71942C13.5869 4.56908 13.619 4.40795 13.619 4.24522C13.619 4.08249 13.5869 3.92136 13.5246 3.77102C13.4623 3.62069 13.371 3.48409 13.2559 3.36905ZM4.63672 11.6358H2.22099V9.22009L7.42411 4.01696L9.83985 6.4327L4.63672 11.6358ZM10.8929 5.37969L8.47713 2.96395L9.61314 1.82794L12.0289 4.24367L10.8929 5.37969Z" fill="white"/>
</svg>
