<svg width="15" height="15" viewBox="0 0 15 15" fill="none" xmlns="http://www.w3.org/2000/svg">
<path d="M4.15262 10.8417C4.31141 10.6838 4.39081 10.4956 4.39081 10.2772C4.39081 10.0588 4.31141 9.87308 4.15262 9.71993L2.72348 8.29859H8.80436C9.02869 8.29859 9.21774 8.2218 9.37149 8.06821C9.52525 7.91461 9.60213 7.72576 9.60213 7.50167C9.60213 7.27755 9.52525 7.08987 9.37149 6.93862C9.21774 6.78737 9.02869 6.71175 8.80436 6.71175H2.76376L4.22442 5.25906C4.36979 5.12101 4.44058 4.9446 4.43679 4.72981C4.43299 4.51503 4.35026 4.32833 4.18859 4.16969C4.03722 4.01106 3.84802 3.93363 3.62097 3.93741C3.39393 3.94118 3.20101 4.02202 3.04221 4.17995L0.238192 6.96867C0.156566 7.0518 0.0964575 7.14095 0.0578671 7.23613C0.01929 7.33132 0 7.42898 0 7.52913C0 7.62928 0.01929 7.72577 0.0578671 7.81858C0.0964575 7.91139 0.156566 7.99911 0.238192 8.08173L3.03345 10.8617C3.17882 11.0063 3.36009 11.0786 3.57726 11.0786C3.79444 11.0786 3.98623 10.9996 4.15262 10.8417ZM13.3931 14.9995C13.8327 14.9995 14.2104 14.8436 14.5262 14.5317C14.8421 14.2198 15 13.8468 15 13.4127V1.59767C15 1.16045 14.8421 0.784786 14.5262 0.470669C14.2104 0.156564 13.8327 -0.000488281 13.3931 -0.000488281H8.25005C8.02572 -0.000488281 7.83667 0.0785218 7.68291 0.236542C7.52915 0.394576 7.45228 0.585315 7.45228 0.808757C7.45228 1.0322 7.52915 1.21955 7.68291 1.3708C7.83667 1.52205 8.02572 1.59767 8.25005 1.59767H13.3931V13.4127H8.25005C8.02572 13.4127 7.83667 13.4895 7.68291 13.6431C7.52915 13.7966 7.45228 13.9855 7.45228 14.2096C7.45228 14.4337 7.52915 14.6214 7.68291 14.7726C7.83667 14.9239 8.02572 14.9995 8.25005 14.9995H13.3931Z" fill="#023E7D"/>
</svg>
