<svg width="16" height="20" viewBox="0 0 16 20" fill="none" xmlns="http://www.w3.org/2000/svg">
<path d="M7.99902 0.668457C8.14076 0.668457 8.28119 0.696195 8.41211 0.750488C8.51058 0.791375 8.60258 0.846997 8.68457 0.914551L8.7627 0.98584L15.5127 7.73584C15.6131 7.83586 15.6927 7.95462 15.7471 8.08545C15.8015 8.2165 15.8301 8.35762 15.8301 8.49951C15.8301 8.64134 15.8015 8.78161 15.7471 8.9126C15.7063 9.01084 15.6513 9.10224 15.584 9.18408L15.5127 9.26318C15.4125 9.36368 15.2931 9.44315 15.1621 9.49756C15.0311 9.55191 14.8908 9.58057 14.749 9.58057C14.6072 9.58057 14.4669 9.55191 14.3359 9.49756C14.2049 9.44315 14.0855 9.36368 13.9854 9.26318L9.07812 4.35596V18.2505C9.07807 18.5362 8.96458 18.8101 8.7627 19.0122C8.56052 19.2144 8.28592 19.3286 8 19.3286C7.71406 19.3286 7.43949 19.2144 7.2373 19.0122C7.03539 18.8101 6.92193 18.5362 6.92188 18.2505V4.35596L6.8418 4.43604L2.0127 9.26318C1.81015 9.46569 1.53544 9.57959 1.24902 9.57959C0.962609 9.57959 0.687897 9.46568 0.485352 9.26318C0.282837 9.06067 0.16899 8.78591 0.168945 8.49951C0.168945 8.2131 0.28285 7.93839 0.485352 7.73584L7.23535 0.98584C7.33551 0.88533 7.45489 0.804903 7.58594 0.750488C7.71686 0.696195 7.85729 0.668457 7.99902 0.668457Z" fill="#023E7D" stroke="#023E7D" stroke-width="0.09375"/>
</svg>
