<svg width="20" height="18" viewBox="0 0 20 18" fill="none" xmlns="http://www.w3.org/2000/svg">
<path d="M15.8564 0C18.1402 0.000239307 19.999 1.84151 19.999 4.10449L20 6.78125C20 6.97837 19.9212 7.16792 19.7803 7.30762C19.6403 7.44634 19.449 7.52441 19.25 7.52441C18.429 7.52441 17.7607 8.18649 17.7607 9.00098C17.7607 9.76352 18.3479 10.3929 19.0977 10.4688L19.3262 10.4805C19.7044 10.5183 20 10.835 20 11.2197V13.8945C20 16.1575 18.1422 17.9998 15.8574 18H4.14258C1.85777 17.9998 0 16.1575 0 13.8945V11.2197C0 10.835 0.295574 10.5183 0.673828 10.4805L0.902344 10.4688C1.65206 10.3929 2.23926 9.76352 2.23926 9.00098C2.23925 8.20829 1.59899 7.61035 0.75 7.61035C0.551 7.61035 0.359727 7.53228 0.219727 7.39355C0.0788938 7.25387 0 7.06424 0 6.86719L0.000976562 4.10449C0.000976562 1.84151 1.85976 0.000239307 4.14355 0H15.8564ZM9.99902 5.20117C9.71702 5.20117 9.46294 5.35928 9.33594 5.61328L8.60645 7.08984L6.98047 7.32715C6.69966 7.36726 6.46984 7.55925 6.38086 7.8291C6.29292 8.09993 6.36368 8.39087 6.56738 8.58887L7.74707 9.7373L7.46875 11.3604C7.42085 11.6412 7.53387 11.918 7.76367 12.085C7.89367 12.179 8.04524 12.2275 8.19824 12.2275C8.31509 12.2275 8.43315 12.1975 8.54102 12.1406L9.99902 11.374L11.4541 12.1396C11.7059 12.2734 12.0045 12.2518 12.2334 12.084C12.4643 11.918 12.5782 11.6413 12.5303 11.3604L12.251 9.7373L13.4297 8.58887C13.6346 8.39088 13.7062 8.10006 13.6172 7.8291C13.5292 7.5591 13.2985 7.36713 13.0205 7.32812L11.3916 7.08984L10.6631 5.61426C10.5381 5.3603 10.2839 5.20222 10.001 5.20117H9.99902Z" fill="#CBDAFF"/>
</svg>
